<svg xmlns="http://www.w3.org/2000/svg" width="1181" height="1181" style="shape-rendering:geometricPrecision;text-rendering:geometricPrecision;image-rendering:optimizeQuality;fill-rule:evenodd;clip-rule:evenodd"><path style="opacity:1" fill="#fef6db" d="M643.5 24.5a631.5 631.5 0 0 0-54 2 123 123 0 0 1-19.5-2l-3.5 1c1.7 1.7 1.3 2.7-1 3a100.7 100.7 0 0 0-8-1.5 23 23 0 0 0 5-2 31.4 31.4 0 0 0-11 1.5c-1.2-1.4-2.2-1.2-3 .5 3 .4 3.4 1 1 2l1.5.5a69 69 0 0 1 9.5-1 28 28 0 0 0 5 1.5c-1.2.7-1.2 1.2 0 1.5a24.8 24.8 0 0 1 8.5-3c2.1 2 4.6 3.3 7.5 4 27.3-1.7 54.3-1.2 81 1.5 5.5 3 11 3.1 16.5.5a78.8 78.8 0 0 1 8.5 6 42 42 0 0 1 14 3.5l16 1c1.2.5 2 1.3 2.5 2.5a4 4 0 0 1 2-1 200.4 200.4 0 0 0 31.5 8v3c1.9.5 3.7 1.1 5.5 2a20.1 20.1 0 0 1 9.5-.5 136.8 136.8 0 0 1 18 9c4.7 0 8.7 1.7 12 5a43.4 43.4 0 0 0 8 2 18.3 18.3 0 0 0 6 4c4.6.4 9 1.6 13 3.5v3a131.2 131.2 0 0 1 30 13 14.7 14.7 0 0 0 3 4.5 342.4 342.4 0 0 0 12 6.5v3a112.3 112.3 0 0 0 13 3c1.4 1 2 2.4 2 4h3v3a21.3 21.3 0 0 1 7 1c1.9 2 4.2 3.4 7 4a6 6 0 0 1 2 5c4.2.6 6.9 2.9 8 7a324.6 324.6 0 0 1 13 4 168 168 0 0 1 2 6.5 135.6 135.6 0 0 0 18 10.5v3h3c-.2 1.3.2 2.5 1 3.5a34.6 34.6 0 0 0 8.5 4.5c.5 1 .6 2 .5 3 5.5 1 8.5 4.3 9 10 2.2-.2 3.9.6 5 2.5a4.6 4.6 0 0 0-2 4.5h4a3 3 0 0 1 1-3c1.5 1.8 2.5 3.8 3 6h3v4h3a310 310 0 0 0-2.5 6 26 26 0 0 1 4.5 4 6.5 6.5 0 0 1 5-3v3h4v3c3-.3 4.3 1 4 4a9.1 9.1 0 0 1 5 1 28.1 28.1 0 0 1 5 9c3-.3 4.3 1 4 4h4c-.2 1.7.5 2.7 2 3 .7.9 1.7 1.2 3 1v3h3c-.6 3.5.7 5.5 4 6v3c6.1-.6 10.5 2 13 7.5a6.5 6.5 0 0 0-1 4.5 65 65 0 0 0 7.5 4c2 3.2 3.1 6.7 3.5 10.5a115.8 115.8 0 0 1 6.5 8.5c.7 2 .6 3.8-.5 5.5 2.9 1.4 4.9 3.5 6 6.5a6.7 6.7 0 0 0 4 2l-1 2a63.8 63.8 0 0 0 3 11h3c0 2.2.8 4.2 2 6 5 4.5 7.8 10.2 8.5 17a25.4 25.4 0 0 0 4.5 4 9.1 9.1 0 0 1 1 5h3a85.5 85.5 0 0 1 2 18 28 28 0 0 1 9.5 6c-.2 2.9 0 5.9 1 9 3 3.6 4.8 7.8 5.5 12.5.5 1.2 1.3 2 2.5 2.5a42.1 42.1 0 0 0 4.5 14 3.6 3.6 0 0 1-1 1.5c1.6 3.6 2.2 7.5 2 11.5h4v13c2.4.3 4.7.8 7 1.5-.5 2.3-1.7 4-3.5 5.5a25 25 0 0 0-.5 7h3c2 3.8 3.4 8 4 12.5a11.2 11.2 0 0 0-1 4.5h4c0 2.5-1 4.5-3 6a11.4 11.4 0 0 0 2.5 2c0 3.5.8 6.7 2.5 9.5v8.5c.3 2 1.2 2.4 2.5 1 .6 5.5 1.4 11 2.5 16.5a13.6 13.6 0 0 1-2 4c1.6 3.3 2.4 6.8 2.5 10.5.4.5 1 .8 1.5 1a105.7 105.7 0 0 1 2 17h3v124h3c-.2-6.7 0-13.3.5-20 1.2-5.5 2.7-10.9 4.5-16a588 588 0 0 1-38 178h-1a23 23 0 0 1 2-8c-1.6 0-3-.6-4-2a7.2 7.2 0 0 0-2.5 2 73.8 73.8 0 0 1-11.5 25.5l1 1a15 15 0 0 0-1.5 4.5c-2.6 1.6-3.5 3.8-2.5 6.5a24.5 24.5 0 0 0-5 5.5l1 2a67.7 67.7 0 0 1-8.5 13c-1 2.7-1.4 5.4-1 8a13.9 13.9 0 0 0-4 3 185.3 185.3 0 0 1-7.5 15 28.8 28.8 0 0 1-4 1.5c1.1 2 .5 3.6-2 4.5.2.6.5 1 1 1.5a27.6 27.6 0 0 1-8 11.5c-2.3 4.8-4.1 9.5-5.5 14a45 45 0 0 1-11.5 8c-1.4 5-4 9.3-7.5 13-1-1.8-2.1-2-3.5-1l2 2a12 12 0 0 0-1 6 3 3 0 0 0-3 1c-2 5.5-5.6 9.8-10.5 13a5 5 0 0 0-.5 3c-3.3 0-4.8 1.6-4.5 5-2.9 1.9-5 4.4-6.5 7.5-4.2.8-6.5 3.3-7 7.5a154.7 154.7 0 0 1-15.5 13 26.7 26.7 0 0 1-1.5 6.5 15 15 0 0 0-10.5 8.5c-1.2-1.2-2.3-1.2-3.5 0-1.4 3-3.4 5.5-6 7.5l4 1-1 1a325 325 0 0 0-16 10 19.6 19.6 0 0 0-13 14l1 1a35 35 0 0 0-8 6c.6.4.9.9 1 1.5a556 556 0 0 1-122 71 559 559 0 0 1-67 23c-1.3-.7-2.8-1-4.5-1a85.1 85.1 0 0 1-20.5 3.5c1.3.7 1.3 1.3 0 2l-21 4.5c-3.9.9-7.7.9-11.5 0-4 2-8.2 2.3-12.5 1 5.4-1.5 11-2.4 17-2.5a29.2 29.2 0 0 1 24-5.5 6 6 0 0 0 2-6 50 50 0 0 1-10-.5c-1-2-1.3-4.2-1-6.5h-20v-13c-6 1.3-8.3-1-7-7-2.3.4-4-.2-5-2 1 0 1.8-.3 2.5-1l1 2 .5-14c0-5-.7-9.7-2-14-4.2-.3-8.2 0-12 1-1 8.8-1.3 17.8-1 27-1.4 6.8-2 13.8-2 21 2 .3 3.6 0 5-1h1c-.7 2.5-2.2 4.5-4.5 6-1.6-1-3.1-2.2-4.5-3.5 1.5-1.8 2.2-4 2-6.5 0-6.1-1.2-6.4-3.5-1a91.2 91.2 0 0 0-2.5-18c1-3.2 1.8-6.5 2.5-10a54.6 54.6 0 0 1 4 13c1.7-5 1.8-10 .5-15a6.8 6.8 0 0 0-1.5 3 46.2 46.2 0 0 1-2-12l-1 4a20.4 20.4 0 0 0-1.5-5.5c2.6-2.2 4.1-5 4.5-8.5l2 2a40.9 40.9 0 0 0 .5-9 50 50 0 0 1-10-.5 9 9 0 0 1-1-5.5c-9-.1-18-.5-27-1v-6h-13v7h-110v13c3.8-.6 7.1.3 10 2.5 6.5.2 12.8.7 19 1.5l-13 2v3h3c.3 14 0 28-1 42l-4 3 2 2-1.5 1a236.2 236.2 0 0 0-42.5-2v-13c-18 .2-36 0-54-.5a48 48 0 0 1-1-13.5h-27c.5 3.9-.1 7.3-2 10.5.8.3 1.5.8 2 1.5 7 1 14 1.3 21 1v5c2.4-.3 4.8 0 7 1l-4 2c1.8 1.8 3.1 3.8 4 6a96 96 0 0 0-19.5-7 47 47 0 0 0-10 1l-4.5-1.5c-2.4-5.9-6.8-8-13-6.5-1.3-5.8-5-8.3-11-7.5-6.6-3-12.6-7-18-12a99.2 99.2 0 0 0-13-3 20.2 20.2 0 0 1-6-4c-2-.7-3.8-.6-5.5.5-1.3-1-1.6-2.4-1-4a306.4 306.4 0 0 0-31-20c-2.3.8-4.1 0-5.5-2.5a5 5 0 0 0-3-.5 5 5 0 0 0-.5-3 61.7 61.7 0 0 1-12.5-10c1-1.3.6-2.5-1-3.5a4.9 4.9 0 0 1 5-2.5 6808.3 6808.3 0 0 0 1-165 6808.3 6808.3 0 0 1 1 165h21a6562.8 6562.8 0 0 0 1-162c6.2.3 12.2 0 18-1v-14a784.7 784.7 0 0 0-56-1c-6 1.2-7.5 4.5-4.5 10 2.2 2.4 4.9 4.1 8 5a66.7 66.7 0 0 1 3.5 12.5 9.7 9.7 0 0 0 0 7 36.4 36.4 0 0 0-2 6 37.8 37.8 0 0 1 1 21 60.7 60.7 0 0 1 2 18 185.4 185.4 0 0 1-2 27c.8 9 .5 18-1 27 0 2.4.3 4.5 1 6.5 1.2 2.2 1.9 4.7 2 7.5l-2 14 2 13-1 6.5a300.8 300.8 0 0 0-20-11.5 55.2 55.2 0 0 1-6-8 3.8 3.8 0 0 0-4 .5 43 43 0 0 1-7.5-6l-1 1c-.2-1.3 0-2.6.5-4-1-2.8-2.2-3.2-3.5-1a5 5 0 0 1-.5-3c-2.9.3-4.4-1-4.5-4-3.4-.6-5.3-2.6-5.5-6a619 619 0 0 0-11-6c-1 .8-2 1-3 .5a9925.5 9925.5 0 0 0-5-6c1.3-2.5 2.5-2.7 3.5-.5a5 5 0 0 0 .5-3 47.3 47.3 0 0 1-7-3c-1.5 1.4-2.9 1.2-4-.5a10.3 10.3 0 0 0 4-1.5 39.8 39.8 0 0 1-3.5-7c-2.9-.4-5-2.3-6.5-5.5a5 5 0 0 0-3-.5v-5a5 5 0 0 1-3-.5 189.4 189.4 0 0 0-8-8.5 3 3 0 0 0-3-1v-3a3 3 0 0 1-3-1l-5-7.5a3.6 3.6 0 0 0 1-1.5c-3.7-2-6.9-4.8-9.5-8a32.5 32.5 0 0 0-.5 8 55 55 0 0 0-7-7 777 777 0 0 1-57-94 2645.2 2645.2 0 0 1-11-24 323.6 323.6 0 0 0-7-19c-.4-3.4.3-6.6 2-9.5a187.7 187.7 0 0 1-4-14.5 5 5 0 0 1 2-3.5 5 5 0 0 0-3-.5 13 13 0 0 0-1-5.5 2693.7 2693.7 0 0 1-6-6c1.1-4 1.3-8.2.5-12.5-3-3.6-4-7.6-3-12a36.4 36.4 0 0 0-4-8l-1-13c-3-3-4-6.8-3-11l1 1a12.5 12.5 0 0 0 0-7c-.7 1.1-1.6 1.1-2.5 0a123.1 123.1 0 0 0-6-8.5c2-2.4 3-5.2 3-8.5a93.2 93.2 0 0 0-4-15.5c.2-5.5.6-11 1-16.5a4.5 4.5 0 0 0-2-1.5 42 42 0 0 0 0-10 7 7 0 0 1-2.5-3.5l-1 1a34.8 34.8 0 0 0-2-10 580.7 580.7 0 0 1 .5-59c1.6 1 2.3.4 2-2a52.1 52.1 0 0 1-3-9 112.9 112.9 0 0 0 3.5-29c1-2.5 2.8-3.5 5.5-3a14.8 14.8 0 0 0-2-6.5 11.4 11.4 0 0 0 1.5-3.5l1 3 .5-6.5c0-2.6-.7-5-2-7 3.1-4.4 4.8-9.4 5-15 .5-1.2 1.3-2 2.5-2.5a32.7 32.7 0 0 0-1-20c-.7 1.2-1.2 1.2-1.5 0 2.3-3.7 3.5-7.7 3.5-12 3-2 4.8-4.7 5.5-8-1.8.3-3.2-.4-4-2 3-1.7 4-4 3-7a39.2 39.2 0 0 0 2.5-8c.7 1 1.6 1.1 2.5.5a14.5 14.5 0 0 1 4.5-4.5 78 78 0 0 0 4-19 36 36 0 0 1 3.5-4.5 3.6 3.6 0 0 1-1-1.5 6.4 6.4 0 0 1 5-3 41 41 0 0 1 .5-9c6-8 9.7-17 11-27a32.4 32.4 0 0 0 4.5-3 3.6 3.6 0 0 0-1-1.5c3.5-3.7 5.3-7.9 5.5-12.5 2-1 3.4-2.7 4-5 2.7-5.3 4.6-11 5.5-17a6.5 6.5 0 0 1 5-3 25.3 25.3 0 0 1 0-13 3.6 3.6 0 0 1 1.5 1 68.3 68.3 0 0 1 6.5-11.5c-.8-1-1.2-2.2-1-3.5a403.9 403.9 0 0 1 34-48 5.6 5.6 0 0 0 3-1c1-4.3 3.6-5.6 7.5-4a9.6 9.6 0 0 0 3-3c.4.5 1 .8 1.5 1 1.6-2 3.6-3.3 6-4v-4h3a6.8 6.8 0 0 1 1-4c2-.9 3.4-2.4 4-4.5.2-2.8.5-5.6 1-8.5a14.8 14.8 0 0 1 3.5 4c1.6-5.1 4.8-8.8 9.5-11 3.6-4 7-8.2 10-12.5 8.1-3 14.1-8.3 18-16-1.2-1.5-1.2-3 0-4.5a27 27 0 0 0 4.5 2 37.7 37.7 0 0 0 10-7 5 5 0 0 0 .5-3c4.3.2 7.3-1.6 9-5.5 4.7-.7 7.4-3.4 8-8 6.7.5 8.7-2.3 6-8.5a15.7 15.7 0 0 1 4-2h7c3.5-1.2 5.8-3.6 7-7 5.3-1.2 7.6-4.5 7-10a8 8 0 0 1 5.5 2 109.2 109.2 0 0 1 12.5-6v-5a32.5 32.5 0 0 0 8-.5 19 19 0 0 1 14-8 55.5 55.5 0 0 1 7-5.5c2.7.8 5.2 0 7.5-2l1 1a11 11 0 0 0 1.5-10.5c2-.7 4-.5 6 .5 2.5-2.6 5-2.6 7.5 0a39.1 39.1 0 0 0 6.5-2c1.6-2.7 1-4.5-2-5.5 1.8-1.7 3.8-1.9 6-.5a137.9 137.9 0 0 1 9-2.5c.1-1.3.4-2.6 1-4a119.6 119.6 0 0 1 16-2l-4-3c2.3-1.8 4.1-1.3 5.5 1.5 1.7-3.4 4.4-5.7 8-7a152.2 152.2 0 0 0 13.5-6c4.5-.6 8.9-1.8 13-3.5 2-.4 3-1.6 3-3.5 4.7.2 9.3 0 14-.5a33.2 33.2 0 0 0 6-3.5c3.7 1 7.7 1.8 12 2a8.5 8.5 0 0 1 0-6c6.3-1 12.3-2.3 18-4a31.6 31.6 0 0 0 9-3 4188 4188 0 0 1 18-3c5 .1 9.6-.5 14-2 11.2-1.6 22.5-3.1 34-4.5 24-.7 48-.7 72 0 7.5.2 14.8.7 22 1.5z"/><path style="opacity:1" fill="#081321" d="M430.5 21.5a14 14 0 0 1-4 2 4.9 4.9 0 0 0-1 4 8.4 8.4 0 0 0-4 .5c-.9 2-2.2 3.7-4 5a126.3 126.3 0 0 1-7.5.5c-.8 1.8-.3 3.2 1.5 4a15.4 15.4 0 0 1 7-1c-.3 3.1.2 6.2 1.5 9l1.5-1.5a647.6 647.6 0 0 1 16-1.5 81.9 81.9 0 0 1-13 5 502 502 0 0 0-78 30v-3a51.6 51.6 0 0 0 7-1c-.2-6 2.7-9.4 8.5-10l3 2c3.2-4.8 7.5-6.8 13-6a25.3 25.3 0 0 1 .5-10 43.2 43.2 0 0 0-1.5-5c-.4 2.3-1.4 2.6-3 1a66.5 66.5 0 0 0-10.5 4 27 27 0 0 1-4 8 7 7 0 0 0-4.5-3 39.8 39.8 0 0 1-12.5 5v3a29.8 29.8 0 0 0-7 2 3 3 0 0 1-1 3c-2.4-.6-4.2-2-5.5-4a9.9 9.9 0 0 0-2 5c-3.4 1.7-6 4-8 7a3.5 3.5 0 0 0-3-3 29.4 29.4 0 0 1-10.5 2.5 201.8 201.8 0 0 1-9.5 9.5c-8.2-1.7-13.8 1.3-17 9a9 9 0 0 0-5.5-1v5c-6 .8-11.6 3-17 7a7.1 7.1 0 0 0-1 5c-2.2-.2-3.8.6-5 2.5a32.5 32.5 0 0 1-8 .5 559.4 559.4 0 0 1 188-91z"/><path style="opacity:1" fill="#eae8d4" d="M470.5 35.5h4c-5.7 1.7-11.7 3-18 4a8.5 8.5 0 0 0 0 6c-4.3-.2-8.3-1-12-2a33.2 33.2 0 0 1-6 3.5c-4.7.5-9.3.7-14 .5a81.9 81.9 0 0 0 13-5 892.9 892.9 0 0 1 33-7z"/><path style="opacity:1" fill="#fcfadf" d="m643.5 24.5 38 5a1153 1153 0 0 1 40 8 901.4 901.4 0 0 1 75 23 1286.4 1286.4 0 0 1 45 20 644 644 0 0 1 106 67.5 336.6 336.6 0 0 1 16 14.5 3 3 0 0 0-2 2c4.6.6 7.1 3.3 7.5 8a15.3 15.3 0 0 0 4.5 1.5l4 6a280 280 0 0 0 26 22.5c-1.3 1.3-1.3 2.7 0 4 5.1.2 7.4 2.9 7 8h4c-.6 3-.8 6-.5 9 1.2 2.2 3 3.2 5.5 3v6c-1.6-.3-2.2-1.3-2-3h-4c.3-3-1-4.3-4-4a28.1 28.1 0 0 0-5-9 9.1 9.1 0 0 0-5-1c.3-3-1-4.3-4-4v-3h-4v-3a6.5 6.5 0 0 0-5 3 26 26 0 0 0-4.5-4 310 310 0 0 1 2.5-6h-3v-4h-3c-.5-2.2-1.5-4.2-3-6a3 3 0 0 0-1 3h-4c-.2-1.9.5-3.4 2-4.5a4.8 4.8 0 0 0-5-2.5c-.5-5.7-3.5-9-9-10a5 5 0 0 0-.5-3 34.6 34.6 0 0 1-8.5-4.5c-.8-1-1.2-2.2-1-3.5h-3v-3a135.6 135.6 0 0 1-18-10.5 168 168 0 0 0-2-6.5 324.6 324.6 0 0 0-13-4 8.9 8.9 0 0 0-8-7 6 6 0 0 0-2-5c-2.8-.6-5.1-2-7-4a21.3 21.3 0 0 0-7-1v-3h-3c0-1.6-.6-3-2-4a112.3 112.3 0 0 1-13-3v-3a342.4 342.4 0 0 1-12-6.5 14.7 14.7 0 0 1-3-4.5 131.2 131.2 0 0 0-30-13v-3c-4-2-8.4-3.1-13-3.5a18.3 18.3 0 0 1-6-4 43.4 43.4 0 0 1-8-2c-3.3-3.3-7.3-5-12-5a136.8 136.8 0 0 0-18-9 20.1 20.1 0 0 0-9.5.5 27.2 27.2 0 0 0-5.5-2v-3a200.4 200.4 0 0 1-31.5-8 4 4 0 0 0-2 1c-.5-1.2-1.3-2-2.5-2.5l-16-1a42 42 0 0 0-14-3.5 78.8 78.8 0 0 0-8.5-6c-5.5 2.6-11 2.5-16.5-.5a498.9 498.9 0 0 0-81-1.5c-2.9-.7-5.4-2-7.5-4a24.8 24.8 0 0 0-8.5 3c-1.2-.3-1.2-.8 0-1.5a28 28 0 0 1-5-1.5 69 69 0 0 0-9.5 1l-1.5-.5c2.4-1 2-1.6-1-2 .8-1.7 1.8-1.9 3-.5a31.4 31.4 0 0 1 11-1.5 23 23 0 0 1-5 2c2.7.4 5.4.9 8 1.5 2.3-.3 2.7-1.3 1-3l3.5-1a123 123 0 0 0 19.5 2 631.5 631.5 0 0 1 54-2z"/><path style="opacity:1" fill="#091325" d="M555.5-.5h69a591.9 591.9 0 0 1 329 125c1.6 5 .6 5.8-3 2.5-4.8-.6-8.4-2.9-11-7a13 13 0 0 0-5-.5c.7 3.4-.6 5.2-4 5.5 3.7 1.6 5.9 4.4 6.5 8.5a110.8 110.8 0 0 0 10.5 4 51.3 51.3 0 0 0 2 6c1.6.5 2.8 1.5 3.5 3a3.6 3.6 0 0 1 1.5-1 37.8 37.8 0 0 1 9 3c1.4 1.8 1 3.3-1 4.5 1.8 3 4.5 4.5 8 4.5a52.6 52.6 0 0 0 1.5 7 11.3 11.3 0 0 0 3.5 1.5 94.8 94.8 0 0 0 19.5 20.5 38 38 0 0 1 5.5 10 444.1 444.1 0 0 0-37-34 336.6 336.6 0 0 0-16-14.5 644 644 0 0 0-106-67.5c0-1-.2-1.8-1-2.5a414.5 414.5 0 0 1-25-11 6.8 6.8 0 0 0 3-1.5 908.8 908.8 0 0 0-14-2.5c2.4-1 2-1.6-1-2a25 25 0 0 0-7-.5 901.4 901.4 0 0 0-75-23 26.1 26.1 0 0 0-6-3.5 189 189 0 0 0-34-4.5l-38-5a238.4 238.4 0 0 0-22-1.5c-24-.7-48-.7-72 0a1173 1173 0 0 0-34 4.5c-5-.3-9.6.4-14 2a4188 4188 0 0 0-18 3c-4.6.3-9 1.3-13 3a892.9 892.9 0 0 0-33 7 647.6 647.6 0 0 0-16 1.5l-1.5 1.5a17.6 17.6 0 0 1-1.5-9 15.4 15.4 0 0 0-7 1c-1.8-.8-2.3-2.2-1.5-4a126.3 126.3 0 0 0 7.5-.5c1.8-1.3 3.1-3 4-5a8.4 8.4 0 0 1 4-.5c-.3-1.5 0-2.8 1-4a14 14 0 0 0 4-2 599.2 599.2 0 0 1 125-22z"/><path style="opacity:1" fill="#aeb1a6" d="M483.5 32.5a31.6 31.6 0 0 1-9 3h-4c4-1.7 8.4-2.7 13-3z"/><path style="opacity:1" fill="#292b30" d="M681.5 29.5a189 189 0 0 1 34 4.5c2.2 1 4.2 2.1 6 3.5a1153 1153 0 0 0-40-8z"/><path style="opacity:1" fill="#c2c3b8" d="M515.5 27.5c-4.4 1.5-9 2.1-14 2 4.4-1.6 9-2.3 14-2z"/><path style="opacity:1" fill="#22252b" d="M796.5 60.5a25 25 0 0 1 7 .5c3 .4 3.4 1 1 2l14 2.5a6.8 6.8 0 0 1-3 1.5 414.5 414.5 0 0 0 25 11c.8.7 1 1.5 1 2.5a1286.4 1286.4 0 0 0-45-20z"/><path style="opacity:1" fill="#061224" d="M346.5 77.5a32.5 32.5 0 0 1-7 3 32.4 32.4 0 0 0-8 .5c-.8 1-1.2 2.2-1 3.5a47 47 0 0 1-13 2.5 4.5 4.5 0 0 1 2 1.5l-3 3c-1-1.4-2.4-2-4-2a6 6 0 0 1-2 5c-.2-.9-.5-1.9-1-3-3.8 4-8.2 7.4-13 10l-3-.5a26 26 0 0 0 5-5 41 41 0 0 0-9-.5 20 20 0 0 0-2 10c-2.8-.9-5.4-.9-8 0v3a72 72 0 0 1-11 1 4 4 0 0 0-2.5-4 10 10 0 0 0-4.5 7c-2.3-.3-4.3.4-6 2-3.8-1.5-5.8-.2-6 4-2.7 1-5.4 1-8 0 1.3-1.7 1.3-3.4 0-5 0-.7.3-1 1-1a32.5 32.5 0 0 0 8-.5 4.9 4.9 0 0 1 5-2.5c-.3-1.8 0-3.5 1-5 5.4-4 11-6.2 17-7v-5a9 9 0 0 1 5.5 1c3.2-7.7 8.8-10.7 17-9a201.8 201.8 0 0 0 9.5-9.5c3.7-.2 7.2-1 10.5-2.5 1.7.3 2.7 1.3 3 3 2-3 4.6-5.3 8-7 .2-1.9.9-3.5 2-5 1.3 2 3.1 3.4 5.5 4a3 3 0 0 0 1-3 29.8 29.8 0 0 1 7-2v-3a39.8 39.8 0 0 0 12.5-5 7 7 0 0 1 4.5 3 27 27 0 0 0 4-8 66.5 66.5 0 0 1 10.5-4c1.6 1.6 2.6 1.3 3-1a43.2 43.2 0 0 1 1.5 5 25.3 25.3 0 0 0-.5 10c-5.5-.8-9.8 1.2-13 6l-3-2c-5.8.6-8.7 4-8.5 10a51.6 51.6 0 0 1-7 1v3z"/><path style="opacity:1" fill="#f7f6df" d="M424.5 47.5c0 2-1 3-3 3.5a50.5 50.5 0 0 1-13 3.5 152.2 152.2 0 0 1-13.5 6 13.8 13.8 0 0 0-8 7c-1.4-2.8-3.2-3.3-5.5-1.5l4 3c-5.4.3-10.7 1-16 2-.6 1.4-.9 2.7-1 4a137.9 137.9 0 0 0-9 2.5c-2.2-1.4-4.2-1.2-6 .5 3 1 3.6 2.8 2 5.5a39.1 39.1 0 0 1-6.5 2c-2.5-2.6-5-2.6-7.5 0-2-1-4-1.2-6-.5a11 11 0 0 1-1.5 10.5l-1-1a7.6 7.6 0 0 1-7.5 2 55.5 55.5 0 0 0-7 5.5 19 19 0 0 0-14 8 32.5 32.5 0 0 1-8 .5v5a109.2 109.2 0 0 0-12.5 6 8 8 0 0 0-5.5-2c.6 5.5-1.7 8.8-7 10a10.8 10.8 0 0 1-7 7h-7a15.7 15.7 0 0 0-4 2c2.7 6.2.7 9-6 8.5-.6 4.6-3.3 7.3-8 8a8.6 8.6 0 0 1-9 5.5 5 5 0 0 1-.5 3 37.7 37.7 0 0 1-10 7 27 27 0 0 1-4.5-2c-1.2 1.5-1.2 3 0 4.5-3.9 7.7-9.9 13-18 16a147.2 147.2 0 0 1-10 12.5 17.5 17.5 0 0 0-9.5 11 14.8 14.8 0 0 0-3.5-4 83.2 83.2 0 0 0-1 8.5c-.6 2.1-2 3.6-4 4.5a6.8 6.8 0 0 0-1 4h-3v4c-2.4.7-4.4 2-6 4a3.6 3.6 0 0 1-1.5-1 9.6 9.6 0 0 1-3 3c-4-1.6-6.4-.3-7.5 4a5.6 5.6 0 0 1-3 1 565.6 565.6 0 0 1 195-160 32.5 32.5 0 0 0 7-3 502 502 0 0 1 78-30z"/><path style="opacity:1" fill="#272c31" d="M532.5 157.5a8.2 8.2 0 0 1-6 3.5c-2.1 4-5.5 6.7-10 8a52 52 0 0 0-4 8.5l-5 2a40.9 40.9 0 0 1 25-22z"/><path style="opacity:1" fill="#081323" d="M339.5 80.5a565.6 565.6 0 0 0-195 160 403.9 403.9 0 0 0-34 48 509.2 509.2 0 0 0-49 97 38.6 38.6 0 0 0-4 9c-1-1.3-2.2-1.3-3.5 0-.7-9.5-.2-18.8 1.5-28h-3v10h-3v14c-2.3-.3-4.5 0-6.5 1a345.9 345.9 0 0 1-6.5 18 20.7 20.7 0 0 1-8 8.5 24.7 24.7 0 0 1-3 8c.6 1.4 1 3 1 4.5-1.3-.2-2.5.2-3.5 1a20.6 20.6 0 0 0 2.5 22 34.6 34.6 0 0 1-6 11 54.5 54.5 0 0 1-4.5 2c-.2 3.3-1.4 6.2-3.5 8.5a27.3 27.3 0 0 1 4 9 57 57 0 0 0-2 9.5 7.4 7.4 0 0 0-4.5 0c0 3.7-.9 7.2-2.5 10.5l3 11.5c.3 1.1 1 2 2 2.5-1.6 2-2.6 4.4-3 7l2 2a18.8 18.8 0 0 1-4.5 5.5 340.2 340.2 0 0 1-1.5 26c-1.4.7-2.1 1.8-2 3.5a26 26 0 0 1 0 13.5h-3v-20c3.3-50.6 13-100 29-148a15 15 0 0 1 6-3 320.3 320.3 0 0 0 4.5-24c2.6-2.8 4.1-6.1 4.5-10 1.3 1.2 2.3.9 3-1 0-6 1.8-11.4 5.5-16a43 43 0 0 1 2-9c1.2-1.4 2.7-2.4 4.5-3a65.8 65.8 0 0 0 1.5-10 12 12 0 0 1 5.5-5 32.4 32.4 0 0 0 1.5-6l5-7a29 29 0 0 1 3-10l1 1a9 9 0 0 1 5.5-3l-1-10c41-70.6 94.6-130 161-178 1.3 1.6 1.3 3.3 0 5 2.6 1 5.3 1 8 0 .2-4.2 2.2-5.5 6-4a7.2 7.2 0 0 1 6-2c.5-3 2-5.3 4.5-7a4 4 0 0 1 2.5 4 72 72 0 0 0 11-1v-3c2.6-.9 5.2-.9 8 0-.2-3.6.5-7 2-10a41 41 0 0 1 9 .5 26 26 0 0 1-5 5l3 .5c4.8-2.6 9.2-6 13-10 .5 1.1.8 2.1 1 3a6 6 0 0 0 2-5c1.6 0 3 .6 4 2l3-3a4.5 4.5 0 0 0-2-1.5 47 47 0 0 0 13-2.5c-.2-1.3.2-2.5 1-3.5a32.4 32.4 0 0 1 8-.5z"/><path style="opacity:1" fill="#0a1528" d="M743.5 183.5a799.5 799.5 0 0 1 12 5c.4 1 1 1.2 2 .5 1.4-5.7 3.2-5.9 5.5-.5.7 8 .5 16.2-.5 24.5-.2 2.8-1.3 3.3-3.5 1.5-6 1.4-10.8 4.5-14.5 9-17 4.2-27-2.3-30-19.5a23.2 23.2 0 0 1 4.5-14.5c1.4-2 3.3-3.3 5.5-4a56 56 0 0 1 19-2z"/><path style="opacity:1" fill="#0a1628" d="M548.5 184.5a33 33 0 0 1 28 22.5 26.7 26.7 0 0 1-9 17c-12.4 11.7-26 13.5-41 5.5-.5-1.4-1.5-2-3-2a17 17 0 0 1-10-9 31.7 31.7 0 0 1-1.5-15c1.4-4.3 3.2-8.3 5.5-12 .5-1.4 1.5-2 3-2 1.9-.3 3.6-1 5-2 2.7 0 5-.6 7-2h1a67.2 67.2 0 0 1 15-1z"/><path style="opacity:1" fill="#9e9c9c" d="M710.5 186.5c0 2.7-.6 5-2 7 0-2.7.6-5 2-7z"/><path style="opacity:1" fill="#1c2329" d="M517.5 191.5a53.2 53.2 0 0 0-5.5 12c-.7 5.2-.2 10.2 1.5 15a30 30 0 0 1-5-10v-5c1.5-5.1 4.5-9.1 9-12z"/><path style="opacity:1" fill="#7c8483" d="M507.5 198.5c-.3 2 0 3.6 1 5v5c-1 3.8-1.3 7.8-1 12a61 61 0 0 1 0-22z"/><path style="opacity:1" fill="#f5f5df" d="M537.5 169.5a66 66 0 0 1 21 2c10 8 18.3 17.6 24.5 29a22 22 0 0 1 1.5 17 5178 5178 0 0 0-8 19c-2 1-3.4 2.8-4 5-2 0-3 1-3 3-6.3 4-13 7-20 9a89.4 89.4 0 0 1-15 1c-5.8-1.8-11-4.8-15.5-9-4-6.1-7.6-12.5-10.5-19a19.2 19.2 0 0 0-1-6c-.3-4.2 0-8.2 1-12 1 3.7 2.7 7 5 10a17 17 0 0 0 10 9c.5 1.4 1.5 2 3 2 15 8 28.6 6.2 41-5.5a26.7 26.7 0 0 0 9-17 33 33 0 0 0-28-22.5 33.5 33.5 0 0 0-14-.5c-.6.4-.9.9-1 1.5h-1c-2.7-.3-5 .3-7 2-2.2-.4-3.9.3-5 2-1.5 0-2.5.6-3 2a20.4 20.4 0 0 0-9 12c-1-1.4-1.3-3-1-5a34 34 0 0 1 1.5-8 59.3 59.3 0 0 0 6.5-13c.7-1.7 2-2.7 4-3 5.2-4 11.2-5.6 18-5z"/><path style="opacity:1" fill="#858a88" d="M525.5 187.5c-1.4 1-3.1 1.7-5 2 1.1-1.7 2.8-2.4 5-2z"/><path style="opacity:1" fill="#636a69" d="M532.5 185.5c-2 1.4-4.3 2-7 2 2-1.7 4.3-2.3 7-2z"/><path style="opacity:1" fill="#c2c3bb" d="M548.5 184.5a67.2 67.2 0 0 0-15 1c.1-.6.4-1.1 1-1.5 4.9-.8 9.5-.6 14 .5z"/><path style="opacity:1" fill="#fdfbdd" d="M519.5 174.5c4.4-.4 8.8-.6 13-.5l-1-1a8.3 8.3 0 0 1 7-1c-4.5.3-4.8 1.1-1 2.5 5.9-.2 11.7-.6 17.5-1a127.9 127.9 0 0 0 7.5 3 8 8 0 0 0-6 7.5c-1.6.2-2.2-.6-2-2.5a146.7 146.7 0 0 0-20 0 4.5 4.5 0 0 1-1.5-2c-3.4 5-7.2 5.3-11.5 1a54.2 54.2 0 0 1-2-6z"/><path style="opacity:1" fill="#121821" d="M512.5 177.5h3a59.3 59.3 0 0 1-6.5 13 34 34 0 0 0-1.5 8 61 61 0 0 0 0 22 19.2 19.2 0 0 1 1 6c-.7-.4-1.2-1-1.5-2a4.5 4.5 0 0 1-1.5 2c-1-.8-2-1-3-.5-1 2.4-1.3 4.9-1 7.5a21.4 21.4 0 0 0-7 1c1-1.8 2.5-3.2 4.5-4a1340.8 1340.8 0 0 1 3-40 154.2 154.2 0 0 1 5.5-11l5-2z"/><path style="opacity:1" fill="#f3f3de" d="M730.5 163.5a18.5 18.5 0 0 1 6 .5c8 6 14.4 13 19.5 21.5.7 1.2.6 2.2-.5 3a799.5 799.5 0 0 0-12-5 38.3 38.3 0 0 0-15-.5 5 5 0 0 0-4 2.5c-2.2.7-4 2-5.5 4a23.2 23.2 0 0 0-4.5 14.5c3 17.2 13 23.7 30 19.5 4.4-1 8.4-3 12-6 0 5.4-2 10.4-5.5 15a106.5 106.5 0 0 0-4.5 17 135.7 135.7 0 0 1-34.5-25 31 31 0 0 1-4-9 84 84 0 0 1 .5-22c1.4-2 2-4.3 2-7a82.4 82.4 0 0 1 20-23z"/><path style="opacity:1" fill="#6c6e67" d="M743.5 183.5a56 56 0 0 0-19 2 5 5 0 0 1 4-2.5c5.2-.8 10.2-.7 15 .5z"/><path style="opacity:1" fill="#f8f7e2" d="M963.5 162.5a444.1 444.1 0 0 1 37 34c34 36 63 75.7 87 119a25 25 0 0 0 .5 7 47.7 47.7 0 0 1 4.5 8 9.2 9.2 0 0 1-4.5-2l-3-11a22 22 0 0 1-7.5-6 56.5 56.5 0 0 1-1.5-9c-1-.8-2.2-1.2-3.5-1 .3-3.3-1-5.6-4-7a6.7 6.7 0 0 1-4-2c-1.1-3-3.1-5.1-6-6.5 1-1.7 1.2-3.6.5-5.5a115.8 115.8 0 0 0-6.5-8.5c-.4-3.8-1.5-7.3-3.5-10.5a65 65 0 0 1-7.5-4c-.2-1.6.1-3.1 1-4.5-2.5-5.6-6.9-8-13-7.5v-3c-3.3-.5-4.6-2.5-4-6h-3v-3c-1.3.2-2.3-.1-3-1v-6c-2.5.2-4.3-.8-5.5-3-.3-3-.1-6 .5-9h-4c.4-5.1-1.9-7.8-7-8-1.3-1.3-1.3-2.7 0-4a280 280 0 0 1-26-22.5l-4-6a15.3 15.3 0 0 1-4.5-1.5c-.4-4.7-2.9-7.4-7.5-8a3 3 0 0 1 2-2z"/><path style="opacity:1" fill="#293034" d="M584.5 217.5c0 3.8-1 7.3-3 10.5a4 4 0 0 0 1 2 7 7 0 0 0-2.5 4.5 18.5 18.5 0 0 1-3.5 2 5178 5178 0 0 1 8-19z"/><path style="opacity:1" fill="#161b25" d="M732.5 157.5a54 54 0 0 1 31.5 29 118 118 0 0 1 1 29 801.5 801.5 0 0 0-6.5 22 76 76 0 0 0 15.5 23 10.1 10.1 0 0 1 1.5 4c-1.6.1-2.8-.5-3.5-2 1 10.1-.4 10.3-4.5.5 1-2 1.3-4.2 1-6.5-1.3.2-2.5-.2-3.5-1a20.4 20.4 0 0 0-1.5-5.5c-1.2-.5-2 0-2.5 1.5a14.3 14.3 0 0 0-2.5-5.5c.8-1.5 1-3 .5-4.5l-1 1a8.8 8.8 0 0 1-1.5-5c-2.5.3-4.6 1.3-6.5 3l.5 10c-1.6.3-3 0-4-1a106.5 106.5 0 0 1 4.5-17c3.6-4.6 5.4-9.6 5.5-15-3.6 3-7.6 5-12 6 3.7-4.5 8.6-7.5 14.5-9 2.2 1.8 3.3 1.3 3.5-1.5 1-8.3 1.2-16.4.5-24.5-2.3-5.4-4.1-5.2-5.5.5-1 .7-1.6.5-2-.5 1-.8 1.2-1.8.5-3a75 75 0 0 0-19.5-21.5 18.5 18.5 0 0 0-6-.5 12 12 0 0 1 8-2.5c-2-1.5-4-2.6-6-3.5z"/><path style="opacity:1" fill="#0a1627" d="M571.5 155.5c3.2 2.8 6.8 4.8 11 6l2 3a29.4 29.4 0 0 1 2 7h4a7.6 7.6 0 0 1-4 5.5c1.6 2 3.6 3.5 6 4.5 20.6.1 41.2 0 62-.5 13.9 2.3 24.5-2.2 32-13.5 1.6-1.2 3.3-1.2 5 0 1.2-2 1.2-4 0-6a47.2 47.2 0 0 0 9-7 97 97 0 0 1 24-.5 43 43 0 0 1 8 3.5c2 .9 4 2 6 3.5a12 12 0 0 0-8 2.5 82.4 82.4 0 0 0-20 23c-1.4 2-2 4.3-2 7a84 84 0 0 0-.5 22 31 31 0 0 0 4 9 135.7 135.7 0 0 0 34.5 25c1 1 2.4 1.3 4 1a448.5 448.5 0 0 0-.5-10c1.9-1.7 4-2.7 6.5-3 0 1.8.5 3.5 1.5 5l1-1c.5 1.5.3 3-.5 4.5a14.3 14.3 0 0 1 2.5 5.5c.4-1.5 1.3-2 2.5-1.5a20.4 20.4 0 0 1 1.5 5.5c1 .8 2.2 1.2 3.5 1 .3 2.3 0 4.5-1 6.5 4 9.8 5.6 9.6 4.5-.5a3.3 3.3 0 0 0 3.5 2c.2 8.8.2 17.4 0 26a6.5 6.5 0 0 1-3 3 7.7 7.7 0 0 0-5.5 4 4.2 4.2 0 0 0-3.5-.5c1.2.7 1.2 1.2 0 1.5a89.7 89.7 0 0 0-6-4 71.5 71.5 0 0 0-21.5-8c-1-.3-1.5-1-1.5-2a824.1 824.1 0 0 1 33-3c2.2-2.3 2.5-4.8 1-7.5-6-2.4-12.4-3.5-19-3.5a28.8 28.8 0 0 1-10-2c-2.4-1.8-5-3.3-8-4.5a8.4 8.4 0 0 0-4-.5c-9.7-6.8-20-12.6-31-17.5a72.4 72.4 0 0 0-20-4.5c-2.3-1.5-5-2.2-8-2a1119 1119 0 0 1-37 1.5c-5.7.4-10.7 2.2-15 5.5a1372.1 1372.1 0 0 1-64 27 60 60 0 0 1-24-3 6.5 6.5 0 0 1-3-3c-1.3-2-3-3.7-5-5a32.3 32.3 0 0 0-4.5-6c-.5 3.5-1.4 6.9-2.5 10a2017.7 2017.7 0 0 0-6 10c0 .7-.3 1-1 1a201.7 201.7 0 0 0-16 18 56.5 56.5 0 0 0 0 21 63 63 0 0 1 8.5 8 49 49 0 0 0 13.5 6 44.5 44.5 0 0 0 25 9c3.5 2.8 7.7 4 12.5 4a298.6 298.6 0 0 1 31.5-1 5 5 0 0 1-.5 3c-3.3-1.3-3.8-1-1.5 1-8 2.3-15.6 5.2-23 8.5a12 12 0 0 0-6 4.5 9.6 9.6 0 0 1-6 1 174.8 174.8 0 0 0-36-1.5c-14 1.9-25.5 8-34.5 18.5-.7 3-.7 6 0 9a433.8 433.8 0 0 0 9.5 27c0 2.7.6 5 2 7a65.5 65.5 0 0 1 .5 37 38690.6 38690.6 0 0 0-19.5 25.5l.5 1.5a73.4 73.4 0 0 1 14.5-6.5c6.8-3.3 11.6-1.4 14.5 5.5a240.8 240.8 0 0 1 7.5 20 378 378 0 0 1 1.5 17l1.5 3c2.3.8 4.6 1.3 7 1.5a6.3 6.3 0 0 1 1 3 63.7 63.7 0 0 0-5 8c-8.8 3.6-13.8.8-15-8.5a34.5 34.5 0 0 0-7.5-29 45.3 45.3 0 0 1-7.5-8.5c-1.4-.8-2.8-.6-4 .5a51.1 51.1 0 0 1-21 18.5c-12.2 1.6-18.5-3.9-19-16.5a28.7 28.7 0 0 1 14-26c1.8-8 .3-15.3-4.5-22a183.5 183.5 0 0 1-18.5-31 5 5 0 0 0-3 .5 131.1 131.1 0 0 1-9 8.5 215.7 215.7 0 0 0-73 128c-1.4 3-2.2 6.4-2.5 10-.8-2.4-1.6-2.2-2.5.5a284 284 0 0 0 4 53l-3 1.5a5.7 5.7 0 0 0-5-2c-.7 4-1.3 4-2 0h-3c.2-11.3 0-22.7-.5-34-1-.8-2.2-1.2-3.5-1a1313.7 1313.7 0 0 1 0-40c4.2-9 6.7-18.8 7.5-29 2-2.6 3.4-5.6 4-9a45 45 0 0 1 5-5l1-9a13.2 13.2 0 0 1 5-3 171.7 171.7 0 0 0 1.5-12 189.2 189.2 0 0 1 15.5-25c.3-8-3.2-13.9-10.5-17.5a263.3 263.3 0 0 0-22-5.5 124.7 124.7 0 0 0-38 1 114.7 114.7 0 0 0-61 36 138.7 138.7 0 0 0-36.5 77c-2.2 14.8-2 29.4.5 44a27 27 0 0 0 3 14v1c-.2 3 .5 5.7 2 8a135.7 135.7 0 0 0 46 68 96.7 96.7 0 0 0 24 16l8 3a7.1 7.1 0 0 0 6 2 27 27 0 0 0 11 3 48 48 0 0 0 38-8 33 33 0 0 0 6.5-9c.7-4 .7-8 0-12a135.8 135.8 0 0 1-11.5-29v-3c1.9.2 3.4-.5 4.5-2a77.6 77.6 0 0 1 0 10l3-3c-.7-4-.6-8 .5-12a19.3 19.3 0 0 0-3-6.5 9.5 9.5 0 0 0 3-5.5c1.6.2 3.1-.1 4.5-1a92 92 0 0 1 3 9c.4 1.3 1.3 2 2.5 2 2 3.3 3.4 7 4 11a236 236 0 0 0 106 124 4 4 0 0 0 2 3.5l-2 2a40.2 40.2 0 0 0 11 2c5.6 4.3 11.9 7 19 8 4.9 3.6 10.2 6 16 7.5-1.5 2.9-.5 4.2 3 4v3a4.5 4.5 0 0 0 0 5.5 9.9 9.9 0 0 1-5 2c13.3.5 26.7.7 40 .5h175c-.3.8-1 1.2-2 1-74 .3-148 0-222-1a283.6 283.6 0 0 1-122-84.5c-2.7.2-5.3.7-8 1.5a8.9 8.9 0 0 0-6 3 219.8 219.8 0 0 1-29 5 487.3 487.3 0 0 1-36-1c-2-1.4-4.3-2-7-2a3019.3 3019.3 0 0 0-15-4c-2-1.6-4.3-2.6-7-3a200.7 200.7 0 0 1-33-18.5 161.3 161.3 0 0 1-51-72.5c1.3-2.3 1-4.6-1-7a419.2 419.2 0 0 1-4.5-22c-2.6-2.1-3-4.6-1.5-7.5a359.5 359.5 0 0 1-1.5-55.5 10 10 0 0 0 2.5-9.5c.3-3.6 1.8-6.4 4.5-8.5l1-12a3.6 3.6 0 0 1 1.5-1 151.2 151.2 0 0 1 5-20 119.8 119.8 0 0 1 20-31c1 0 1.8-.2 2.5-1a81.3 81.3 0 0 0 2.5 3c-1.2 1.5-1.2 2.8 0 4 1.4 1.1 3.1 1.3 5 .5a14.5 14.5 0 0 1 4.5-4.5 14.4 14.4 0 0 1 2.5-5.5c2.6-1.6 5-3.6 7-6a8.4 8.4 0 0 1 4-.5 12 12 0 0 1 1-6 29 29 0 0 0 4-5c1.2 1.2 2.4 1.2 3.5 0 .3 1.5 1 2.9 2 4 .4-2 1.2-3.6 2.5-5-1-2.4 0-3.4 3-3v-3c3.7-2.5 7.7-4.5 12-6a9 9 0 0 1 5.5 1c3.1-4.6 7.3-6 12.5-4 1.2-.3 1.2-.8 0-1.5 2.2-.8 4.2-.5 6 1-1.2 1.2-1.2 2.3 0 3.5.7-4.3 3-6.2 7-5.5 1.3-.7 1.3-1.3 0-2a446.9 446.9 0 0 1 46-1.5 126.5 126.5 0 0 0 9 2 53.4 53.4 0 0 0 7 3.5c4.5.3 8.9 1.1 13 2.5a16.3 16.3 0 0 1 5 2c2.4 4.2 6 6.7 11 7.5-1 1.8-.4 3 2 3.5 3.2-1 5.5-3 7-6 3 3 4.8 2.3 5-2-1.6.2-3-.3-4-1.5a8.8 8.8 0 0 0 6-8.5l2-1a8.4 8.4 0 0 0 4-.5c3-4.8 7.2-8.3 12.5-10.5a1318.1 1318.1 0 0 0-1.5-37v-3c2.5-1.7 4.5-3.8 6-6.5l10-4.5a216.3 216.3 0 0 0 19-6 312.3 312.3 0 0 0 2-15 13 13 0 0 0-1-4 109.6 109.6 0 0 0 4.5-22 15.6 15.6 0 0 1 2.5-4l-1-2c2.3-3.6 3.6-7.6 4-12a9.1 9.1 0 0 1 5-1 47.2 47.2 0 0 1 4-17c6.7-11 15-20.7 25-29a21.4 21.4 0 0 1 7-1c-.3-2.6 0-5.1 1-7.5 1-.5 2-.3 3 .5a4.5 4.5 0 0 0 1.5-2c.3 1 .8 1.6 1.5 2 3 6.5 6.4 12.9 10.5 19 4.5 4.2 9.7 7.2 15.5 9 1.8.7 3.8 1 6 1 3.3.2 6.3-.5 9-2 7-2 13.7-5 20-9a6.5 6.5 0 0 0 3-3c2-1 3.4-2.8 4-5a18.5 18.5 0 0 0 3.5-2 7 7 0 0 1 2.5-4.5 4 4 0 0 1-1-2c2-3.2 3-6.7 3-10.5a22 22 0 0 0-1.5-17 93.8 93.8 0 0 0-24.5-29 31.1 31.1 0 0 0-2-2 46.2 46.2 0 0 0-19 0c-6.8-.6-12.8 1-18 5-2 .3-3.3 1.3-4 3h-3a52 52 0 0 1 4-8.5c4.5-1.3 7.9-4 10-8a8.2 8.2 0 0 0 6-3.5 16 16 0 0 1 9-5.5 100.2 100.2 0 0 1 20 0 35.6 35.6 0 0 1 10 3.5z"/><path style="opacity:1" fill="#777874" d="M523.5 227.5c1.5 0 2.5.6 3 2-1.5 0-2.5-.6-3-2z"/><path style="opacity:1" fill="#1d242b" d="M700.5 154.5a47.2 47.2 0 0 1-9 7c1.2 2 1.2 4 0 6-1.7-1.2-3.4-1.2-5 0-7.5 11.3-18.1 15.8-32 13.5-20.8.5-41.4.6-62 .5-2.4-1-4.4-2.5-6-4.5 2.2-1.3 3.6-3 4-5.5h-4a29.4 29.4 0 0 0-2-7 54 54 0 0 1 13 14.5c16.2 0 32.4.2 48.5.5 8.5-.8 17-1.3 25.5-1.5l18-18c3.1-2.9 6.8-4.7 11-5.5z"/><path style="opacity:1" fill="#3c454d" d="M537.5 169.5a46.2 46.2 0 0 1 19 0 31.1 31.1 0 0 1 2 2 66 66 0 0 0-21-2z"/><path style="opacity:1" fill="#c8c1b9" d="M571.5 155.5c4.6.5 8.3 2.5 11 6a28.1 28.1 0 0 1-11-6z"/><path style="opacity:1" fill="#565b63" d="M576.5 236.5c-.6 2.2-2 4-4 5 .6-2.2 2-4 4-5z"/><path style="opacity:1" fill="#acaba1" d="M676.5 241.5a500.6 500.6 0 0 0-50 1.5 6.9 6.9 0 0 0-5 3 13 13 0 0 1-5 .5c4.3-3.3 9.3-5.1 15-5.5 12.3-.3 24.7-.8 37-1.5 3-.2 5.7.5 8 2z"/><path style="opacity:1" fill="#6f7976" d="M572.5 241.5a6.5 6.5 0 0 1-3 3c0-2 1-3 3-3z"/><path style="opacity:1" fill="#61686b" d="M549.5 253.5a16.6 16.6 0 0 1-9 2c-2.2 0-4.2-.3-6-1a89.4 89.4 0 0 0 15-1z"/><path style="opacity:1" fill="#f4f4dd" d="M676.5 241.5a72.4 72.4 0 0 1 20 4.5c11 4.9 21.3 10.7 31 17.5a33 33 0 0 0 12 5 28.8 28.8 0 0 0 10 2 96 96 0 0 0 17 4v6c-8.4.2-16.7-.3-25-1.5a404.3 404.3 0 0 0-22-11.5 8.9 8.9 0 0 0-6-3l-13-6a53.1 53.1 0 0 0-14-6.5 577.9 577.9 0 0 0-34-.5 72.4 72.4 0 0 0-12 .5c-1 .3-1.6.8-2 1.5a163.2 163.2 0 0 0-21 6 18.5 18.5 0 0 0-6 .5c-.6.4-.9.9-1 1.5a86.3 86.3 0 0 0-30 11.5 114.7 114.7 0 0 0-14 4.5 37 37 0 0 0-13 4 105.8 105.8 0 0 0-14 3 19.5 19.5 0 0 1-7.5-1 54.3 54.3 0 0 1-16 5 42.3 42.3 0 0 1-7.5-2l-2-9c.7 0 1-.3 1-1a3 3 0 0 0 3-1c1.6-2.9 2.6-5.9 3-9 1.1-3.1 2-6.5 2.5-10a32.3 32.3 0 0 1 4.5 6 6.4 6.4 0 0 0 5 5 6.5 6.5 0 0 0 3 3c1 1.4 2.4 2.6 4 3.5 6.8.8 13.5.7 20-.5a1372.1 1372.1 0 0 0 64-27 13 13 0 0 0 5-.5 6.9 6.9 0 0 1 5-3 500.6 500.6 0 0 1 50-1.5z"/><path style="opacity:1" fill="#282f33" d="M652.5 251.5c11.3-.2 22.7 0 34 .5a53.1 53.1 0 0 1 14 6.5 30.9 30.9 0 0 1-12-4.5c-15.3-.5-30.7-.7-46-.5l10-2z"/><path style="opacity:1" fill="#606262" d="m652.5 251.5-10 2h-4c.4-.7 1-1.2 2-1.5a72.4 72.4 0 0 1 12-.5z"/><path style="opacity:1" fill="#8a8a85" d="M617.5 259.5c-2.2 1-4.5 1.6-7 2 .1-.6.4-1.1 1-1.5a18.5 18.5 0 0 1 6-.5z"/><path style="opacity:1" fill="#121b29" d="M638.5 253.5h4c15.3-.2 30.7 0 46 .5a30.9 30.9 0 0 0 12 4.5l13 6a8.9 8.9 0 0 0 6 3 404.3 404.3 0 0 1 22 11.5 141.7 141.7 0 0 0 25 1.5v-6a96 96 0 0 1-17-4c6.6 0 13 1.1 19 3.5 1.5 2.7 1.2 5.2-1 7.5a824.1 824.1 0 0 0-33 3c-13-3.6-25-9.5-36-17.5a113.5 113.5 0 0 0-14-3.5c-.1-.6-.4-1.1-1-1.5a160.5 160.5 0 0 0-45 1.5 4827.6 4827.6 0 0 0-17 4.5 295.5 295.5 0 0 1-22 8.5 71 71 0 0 0-9 3 85 85 0 0 0-35 13.5 320.1 320.1 0 0 1-30 10.5c-.1-.9.2-1.5 1-2 6.3-3 13-5.6 20-7.5a14.5 14.5 0 0 0 5-4c-5-2.4-10.4-3.1-16-2 2.1 1.2 4.5 1.9 7 2l-3.5.5a181.2 181.2 0 0 0-18.5 0v-1h1c2.8-.5 5.5-1.1 8-2a83.3 83.3 0 0 0 10-3 105.8 105.8 0 0 1 14-3 37 37 0 0 0 13-4 114.7 114.7 0 0 1 14-4.5 86.3 86.3 0 0 1 30-11.5c2.5-.4 4.8-1 7-2a163.2 163.2 0 0 1 21-6z"/><path style="opacity:1" fill="#5c6865" d="M684.5 263.5a377.5 377.5 0 0 0-46 0c14.8-2.6 29.8-3.1 45-1.5.6.4.9.9 1 1.5z"/><path style="opacity:1" fill="#95978a" d="M520.5 262.5c2 1.3 3.7 3 5 5a6.4 6.4 0 0 1-5-5z"/><path style="opacity:1" fill="#505152" d="M727.5 263.5a8.4 8.4 0 0 1 4 .5c3 1.2 5.6 2.7 8 4.5a33 33 0 0 1-12-5z"/><path style="opacity:1" fill="#9fa299" d="M713.5 264.5c2.5.3 4.5 1.3 6 3a8.9 8.9 0 0 1-6-3z"/><path style="opacity:1" fill="#95a08f" d="M759.5 298.5c-2 3.6-4.7 6.7-8 9.5a192.2 192.2 0 0 0-18 15c-10.4 6.7-21 12.5-32 17.5-1.8 4.8-.1 7.8 5 9 6.3-1 12.6-2.8 19-5.5a44.6 44.6 0 0 1 5-4.5 2115.4 2115.4 0 0 1 11 32c-5.2 0-8 2.6-8.5 8a466.3 466.3 0 0 0-15.5 22c-4.7 4-9 8.3-13 13-8.7 6.5-18 12-28 16.5a66.2 66.2 0 0 1-17 4c-7.5 2.5-14.5 5.7-21 9.5a274.8 274.8 0 0 1-41 2c-24-2.5-46.6-9.3-68-20.5a256.5 256.5 0 0 1-22-25.5c3.2-4.2 6.9-8.7 11-13.5a45.3 45.3 0 0 0 11-6.5 23.6 23.6 0 0 1 3-3.5 228.3 228.3 0 0 1 31-15 83 83 0 0 1 9-6.5c.1 4.2-1.9 7-6 8.5a35 35 0 0 1-8 2c1 2.4 1.3 4.9 1 7.5h10c-.2-3.4 0-6.7.5-10 .5 8 .7 16 .5 24h-14v27a318.8 318.8 0 0 1 27-.5c1.3 3.8 1.3 7.6 0 11.5a10.3 10.3 0 0 0 4 1.5c12.3-.3 24.6-.4 37-.5v-12a439 439 0 0 0 41-2v-12h14v-14h13v-18a24 24 0 0 0-10-2v-7h7v-4h4c-.2 1.3.2 2.5 1 3.5 3 .5 6 .7 9 .5v-5a27 27 0 0 1-10.5-9c-.2-18 0-36 .5-54-21.4.4-36 0-44-1 .3-2.3 0-4.5-1-6.5a98.4 98.4 0 0 0-14-.5v7h-6v-5h-3c.4-2.7-.7-4-3.5-4-1.8 1.7-4 2.7-6.5 3v6l-9-4v4c-1.6-.2-3.1.1-4.5 1a18.5 18.5 0 0 0-.5 6h-22c-.3 2.6 0 5.1 1 7.5 9 .7 18 .7 27 0a26.6 26.6 0 0 1 2-3.5c.7 3.5 2.5 4.5 5.5 3 .5-2 .7-4 .5-6h6c-.3-1.8.4-3.2 2-4a13.1 13.1 0 0 1 1 7h4v-3h7v-4h3v11a61.3 61.3 0 0 0-13-1v14h-69v14c-2.5-.3-4.5.5-6 2.5-6 .7-12 .7-18 0-1.3-.7-1.3-1.3 0-2l-6-4a8.9 8.9 0 0 0 2-7.5c-3.2-.2-6.2.4-9 2-2.2 0-2.5-.6-1-2l-2-1c-1.6.5-3.3.9-5 1 .3-2-.4-3.5-2-4.5a4.6 4.6 0 0 0 2-4.5 16 16 0 0 1-11-4 84 84 0 0 0 22 .5c3.4-3 7.4-4.1 12-3.5 0-2.3 1.1-3.7 3.5-4a4.5 4.5 0 0 0 5.5 0 4.5 4.5 0 0 1 1.5 2 57.2 57.2 0 0 0 9.5-8.5c4.4-1 8.2-2.8 11.5-5.5a152 152 0 0 1 11.5-1.5c-2-.9-2-2.2 0-4 4.7-.6 9-2.1 13-4.5a71 71 0 0 1 9-3 369.3 369.3 0 0 0 45-11.5c11-.7 22-.7 33 0a568.4 568.4 0 0 1 24 8l13 10a163.6 163.6 0 0 1 22 10 37.6 37.6 0 0 1 13 3.5c1-.5 2-.8 3-1 2.6 1.4 4.9 2.4 7 3z"/><path style="opacity:1" fill="#bbbeae" d="M528.5 270.5a60 60 0 0 0 24 3 67.6 67.6 0 0 1-20 .5c-1.6-1-3-2.1-4-3.5z"/><path style="opacity:1" fill="#c0c0b1" d="M513.5 266.5c-.4 3.1-1.4 6.1-3 9a3 3 0 0 1-3 1l6-10z"/><path style="opacity:1" fill="#171b20" d="M775.5 264.5a87.7 87.7 0 0 1 5 16.5 43 43 0 0 1-5 9.5c.2-8.6.2-17.2 0-26z"/><path style="opacity:1" fill="#404348" d="M566.5 277.5a37 37 0 0 1-13 4 37 37 0 0 1 13-4z"/><path style="opacity:1" fill="#e2e4d8" d="m506.5 277.5 2 9c2.4.9 5 1.6 7.5 2a54.3 54.3 0 0 0 16-5 19.5 19.5 0 0 0 7.5 1 83.3 83.3 0 0 1-10 3 25 25 0 0 0-7 .5c-.6.4-.9.9-1 1.5h-1a39 39 0 0 1-14.5-2l-4.5.5c-.6.4-.9.9-1 1.5-2 0-3 1-3.5 3a41 41 0 0 0-.5 9c-.8-3.1-1.3-6.5-1.5-10l-1 6c-.3-1.8-1-2.1-2-1a128.5 128.5 0 0 0-.5 16c-1-5.5-1.3-11.1-1-17a201.7 201.7 0 0 1 16-18z"/><path style="opacity:1" fill="#737d79" d="M529.5 287.5c-2.5.9-5.2 1.5-8 2 .1-.6.4-1.1 1-1.5a25 25 0 0 1 7-.5z"/><path style="opacity:1" fill="#091427" d="M525.5 303.5a96.4 96.4 0 0 1-25 1.5 20 20 0 0 1 0-15.5c6.7.5 13.3.8 20 1a181.2 181.2 0 0 1 18.5 0l3.5-.5c-2.5-.1-4.9-.8-7-2 5.6-1.1 11-.4 16 2a14.5 14.5 0 0 1-5 4c-7 2-13.7 4.4-20 7.5-.8.5-1.1 1.1-1 2z"/><path style="opacity:1" fill="#818f7e" d="M684.5 263.5c4.7.9 9.4 2 14 3.5 11 8 23 13.9 36 17.5 0 1 .5 1.7 1.5 2a71.5 71.5 0 0 1 21.5 8 7 7 0 0 1 2 4c-2.1-.6-4.4-1.6-7-3-1 .2-2 .5-3 1a37.6 37.6 0 0 0-13-3.5 163.6 163.6 0 0 0-22-10 4511.1 4511.1 0 0 0-13-10 568.4 568.4 0 0 0-24-8c-11-.7-22-.7-33 0a369.3 369.3 0 0 1-45 11.5 295.5 295.5 0 0 0 22-8.5 4827.6 4827.6 0 0 1 17-4.5 377.5 377.5 0 0 1 46 0z"/><path style="opacity:1" fill="#414649" d="M520.5 289.5v1a553.6 553.6 0 0 1-20-1c.1-.6.4-1.1 1-1.5l4.5-.5a39 39 0 0 0 14.5 2z"/><path style="opacity:1" fill="#131822" d="M469.5 263.5a47.2 47.2 0 0 0-4 17 9.1 9.1 0 0 0-5 1c-.4 4.4-1.7 8.4-4 12l1 2a15.6 15.6 0 0 0-2.5 4 109.6 109.6 0 0 1-4.5 22 13 13 0 0 1 1 4 312.3 312.3 0 0 1-2 15 216.3 216.3 0 0 1-19 6 82.1 82.1 0 0 1 16-8c-.2-6.7 0-13.3.5-20a642 642 0 0 0 5-27 120.1 120.1 0 0 1 17.5-28z"/><path style="opacity:1" fill="#97a390" d="M572.5 355.5a133.7 133.7 0 0 1 12-6 47.5 47.5 0 0 1 1-5.5c-.2-1.4-.9-2.2-2-2.5-1.4-1-3-1.3-5-1a22 22 0 0 0-9.5-2 671.9 671.9 0 0 1-37.5-2.5 280 280 0 0 1-27-14.5 76.7 76.7 0 0 1-6-16 3 3 0 0 1 2 2v1c3 2.7 6.7 4 11 4 .2 1.9-.5 3.4-2 4.5 1.6 1 2.3 2.5 2 4.5a20.2 20.2 0 0 0 5-1l2 1c-1.5 1.4-1.2 2 1 2 2.8-1.6 5.8-2.2 9-2 .5 2.9-.2 5.4-2 7.5l6 4c-1.3.7-1.3 1.3 0 2 6 .7 12 .7 18 0 1.5-2 3.5-2.8 6-2.5v-14h69v-14a61.3 61.3 0 0 1 13 1v-11h-3v4h-7v3h-4a13.1 13.1 0 0 0-1-7c-1.6.8-2.3 2.2-2 4h-6a18.5 18.5 0 0 1-.5 6c-3 1.5-4.8.5-5.5-3a26.6 26.6 0 0 0-2 3.5c-9 .7-18 .7-27 0-1-2.4-1.3-4.9-1-7.5h22a18.5 18.5 0 0 1 .5-6 6.5 6.5 0 0 1 4.5-1v-4l9 4v-6c2.5-.3 4.7-1.3 6.5-3 2.8 0 4 1.3 3.5 4h3v5h6v-7a98.4 98.4 0 0 1 14 .5c1 2 1.3 4.2 1 6.5 8 1 22.6 1.4 44 1-.5 18-.7 36-.5 54 2.8 4 6.3 7 10.5 9v5a41 41 0 0 1-9-.5c-.8-1-1.2-2.2-1-3.5h-4v4h-7v7c3.5 0 6.8.6 10 2v18h-13v14h-14v12a439 439 0 0 1-41 2v12c-12.4 0-24.7.2-37 .5a10.3 10.3 0 0 1-4-1.5c1.3-3.9 1.3-7.7 0-11.5a318.8 318.8 0 0 0-27 .5v-27h14c.2-8 0-16-.5-24a50.5 50.5 0 0 0-.5 10h-10c.3-2.6 0-5.1-1-7.5a35 35 0 0 0 8-2c4.1-1.4 6.1-4.3 6-8.5z"/><path style="opacity:1" fill="#f5f6e1" d="M496.5 301.5a7 7 0 0 0 2 4 76.7 76.7 0 0 0 6 16 20.7 20.7 0 0 1-5-1 15.6 15.6 0 0 1-8-8c-.2-5.3 0-10.7.5-16 1-1.1 1.7-.8 2 1l1-6c.2 3.5.7 6.9 1.5 10z"/><path style="opacity:1" fill="#78867c" d="M590.5 279.5c-4 2.4-8.3 3.9-13 4.5-2 1.8-2 3.1 0 4-3.9.4-7.7.9-11.5 1.5a26.4 26.4 0 0 1-11.5 5.5 57.2 57.2 0 0 1-9.5 8.5 4.5 4.5 0 0 0-1.5-2 4.5 4.5 0 0 1-5.5 0c-2.4.3-3.5 1.7-3.5 4-4.6-.6-8.6.6-12 3.5a84 84 0 0 1-22-.5v-1c8.7 0 17-1.3 25-4a320.1 320.1 0 0 0 30-10.5 85 85 0 0 1 35-13.5z"/><path style="opacity:1" fill="#1b2129" d="M500.5 289.5c-2 5-2 10.2 0 15.5 8.2.6 16.5.1 25-1.5-8 2.7-16.3 4-25 4a3 3 0 0 0-2-2 7 7 0 0 1-2-4 41 41 0 0 1 .5-9c.4-2 1.6-3 3.5-3z"/><path style="opacity:1" fill="#0e1726" d="m772.5 293.5-13 16a576.6 576.6 0 0 0-1 48h5a156.2 156.2 0 0 1 14 5.5c2 .7 3.8 1.9 5 3.5-5-2.3-10.4-4-16-5a9.3 9.3 0 0 1-2.5 2 68 68 0 0 0-8.5-5.5 608.2 608.2 0 0 0 1-48.5c-3.2.8-4.8 3-5 6.5a944 944 0 0 0 1 35 11.3 11.3 0 0 1-1 3.5 9 9 0 0 0-4 3c1.2 1.2 2.3 1.2 3.5 0a13 13 0 0 0 .5 8l7 3.5a5 5 0 0 1-3 .5 66.8 66.8 0 0 1-1.5 14c-.4.6-.9.9-1.5 1a227.7 227.7 0 0 1-1.5-15c-.3-1-.8-1.6-1.5-2a962.3 962.3 0 0 1-12.5-26 6 6 0 0 0-6.5-3 72.4 72.4 0 0 0-12 .5 74.3 74.3 0 0 1-12.5 6.5c-3-.2-4.6-2-4.5-5 11-5 21.6-10.8 32-17.5a192.2 192.2 0 0 1 18-15c3.3-2.8 6-6 8-9.5a7 7 0 0 0-2-4 89.7 89.7 0 0 1 6 4c1.2-.3 1.2-.8 0-1.5 1.2-.4 2.3-.2 3.5.5 1.3-2.2 3-3.5 5.5-4z"/><path style="opacity:1" fill="#171d23" d="M490.5 295.5c-.3 5.9 0 11.5 1 17 1.7 3.7 4.4 6.4 8 8a49.8 49.8 0 0 0 13 10 49 49 0 0 1-13.5-6 63 63 0 0 0-8.5-8 56.5 56.5 0 0 1 0-21z"/><path style="opacity:.971" fill="#05101b" d="m80.5 291.5 1 10a9 9 0 0 0-5.5 3l-1-1a29 29 0 0 0-3 10l-5 7a32.4 32.4 0 0 1-1.5 6 12 12 0 0 0-5.5 5 65.8 65.8 0 0 1-1.5 10c-1.8.6-3.3 1.6-4.5 3a43 43 0 0 0-2 9c-3.7 4.6-5.5 10-5.5 16-.7 1.9-1.7 2.2-3 1-.4 3.9-1.9 7.2-4.5 10a320.3 320.3 0 0 1-4.5 24 15 15 0 0 0-6 3c12.5-41 29.8-79.6 52-116z"/><path style="opacity:1" fill="#aaab9f" d="M759.5 309.5v47c1.6-.3 3 0 4 1h-5a576.6 576.6 0 0 1 1-48z"/><path style="opacity:1" fill="#d3dbc1" d="M499.5 320.5a20.7 20.7 0 0 0 5 1 280 280 0 0 0 27 14.5 671.9 671.9 0 0 0 37.5 2.5c3.6 0 6.7.7 9.5 2a167.4 167.4 0 0 1-41-1 44.5 44.5 0 0 1-25-9 49.8 49.8 0 0 1-13-10z"/><path style="opacity:1" fill="#edeee1" d="m1087.5 315.5 4 6a548 548 0 0 1 31 70 3 3 0 0 1-3-1 62.3 62.3 0 0 1-3.5-10 33 33 0 0 1-9-22c-1.5-3-3.5-5.7-6-8a34 34 0 0 0-1.5-8 49.2 49.2 0 0 1-5-6.5l1-1c-.9-1.7-1.9-3.2-3-4.5a47.7 47.7 0 0 0-4.5-8 25 25 0 0 1-.5-7z"/><path style="opacity:1" fill="#18202b" d="M537.5 339.5a167.4 167.4 0 0 0 41 1c2-.3 3.6 0 5 1 1.3 2.3 1 4.5-1 6.5a129.4 129.4 0 0 1-32 11.5 12 12 0 0 1 6-4.5c7.4-3.3 15-6.2 23-8.5-2.3-2-1.8-2.3 1.5-1a5 5 0 0 0 .5-3 298.6 298.6 0 0 0-31.5 1c-4.8 0-9-1.2-12.5-4z"/><path style="opacity:1" fill="#818c7f" d="M730.5 338.5v1a44.6 44.6 0 0 0-5 4.5 82.8 82.8 0 0 1-19 5.5c-5.1-1.2-6.8-4.2-5-9 0 3 1.4 4.8 4.5 5a74.3 74.3 0 0 0 12.5-6.5 72.4 72.4 0 0 1 12-.5z"/><path style="opacity:1" fill="#091527" d="M782.5 366.5a68.6 68.6 0 0 1 17.5 16 22.1 22.1 0 0 1 1.5 7.5 38.8 38.8 0 0 0-.5 11.5 258.5 258.5 0 0 1 50.5 54c.9 1 1.9 1.2 3 .5a760.1 760.1 0 0 1 26-21.5 26.4 26.4 0 0 0 8-4c2.1 1 4.5 1 7 0v-6c3 2 6.3 3.1 10 3.5a20.2 20.2 0 0 0 4 8.5 3.6 3.6 0 0 1-1 1.5 30.6 30.6 0 0 1-13 .5v3c1.7-.2 2.7.5 3 2a425.5 425.5 0 0 1-32 27.5c-2.8 1.6-3.5 3.8-2 6.5a5.6 5.6 0 0 1-1 3 25.1 25.1 0 0 1 5.5 19 6 6 0 0 1 4 4l1-1c.6 5.7 2.3 11 5 16 .7.8 1.5 1 2.5 1a76.4 76.4 0 0 1 4 22 47.7 47.7 0 0 1 .5 16c-1.4.7-3 .9-4.5.5-.8 1-1.2 2.2-1 3.5 2.3-.3 4.3.4 6 2 8.7-2.7 13-8.7 13-18 4.6.7 6.6-1.3 6-6-3.5-7.1-1.2-10.1 7-9-.4 5.5.6 10.6 3 15.5a26 26 0 0 0-4 4.5c-1.5-2.6-2.2-2.3-2 1h-4v5h4c.5 3.8-.5 7.1-3 10a6.8 6.8 0 0 1 1 4v1a3 3 0 0 0-3 1c-2.2 10-5.4 10-9.5 0-.1 2.2-1 4-2.5 5.5a7.3 7.3 0 0 1 3 2 16.5 16.5 0 0 0-3.5 5.5c0 3.6-.9 7-2.5 10 2.2 2 2.4 4.4.5 7a47 47 0 0 0-6.5 5 15.4 15.4 0 0 0-7-1c0-14.8-.1-29.9-.5-45a40.3 40.3 0 0 1-4.5-13.5 75.7 75.7 0 0 0 0-8 4.9 4.9 0 0 1 5-2.5v-5a7.2 7.2 0 0 1-4.5-2c-.9.2-1.7.6-2.5 1a56.3 56.3 0 0 1-2.5-7l-1 3c-.7-2.7-.6-5.4.5-8l-4-4a9.7 9.7 0 0 1-4-7 14.6 14.6 0 0 0-5-4 195.8 195.8 0 0 0-50-72 36.1 36.1 0 0 0-13.5-13 179.5 179.5 0 0 1-11.5 11 85.8 85.8 0 0 0 1 29c1.8 4.7 5 8.3 9.5 11 5.8 10.1 4 18.6-5.5 25.5a20.3 20.3 0 0 1-16 3 8.6 8.6 0 0 1-5-7.5c-.4-3.9.3-7.6 2-11a23.7 23.7 0 0 0 5 4c2.3 3.5 5.3 4 9 1.5 7.5-4.7 7.8-9.7 1-15-2.5 0-4.7-1-6.5-2.5a645.5 645.5 0 0 0-21-27 69.5 69.5 0 0 1-.5-26c1-10.2 1.3-20.5 1-31 .6-.1 1.1-.4 1.5-1a66.8 66.8 0 0 0 1.5-14 5 5 0 0 0 3-.5l-7-3.5a13 13 0 0 1-.5-8c-1.2 1.2-2.3 1.2-3.5 0a9 9 0 0 1 4-3 11.3 11.3 0 0 0 1-3.5 944 944 0 0 1-1-35c.2-3.5 1.8-5.7 5-6.5a608.2 608.2 0 0 1-1 48.5 68 68 0 0 1 8.5 5.5 9.3 9.3 0 0 0 2.5-2c5.6 1 11 2.7 16 5z"/><path style="opacity:1" fill="#889383" d="M583.5 341.5c1.1.3 1.8 1.1 2 2.5a47.5 47.5 0 0 0-1 5.5 133.7 133.7 0 0 0-12 6 83 83 0 0 0-9 6.5 228.3 228.3 0 0 0-31 15 23.6 23.6 0 0 0-3 3.5 45.3 45.3 0 0 1-11 6.5c-4.1 4.8-7.8 9.3-11 13.5-1.1-2.5-.8-4.8 1-7h3a8.4 8.4 0 0 1 .5-4 75.6 75.6 0 0 1 8-9c.8-1.6.6-2.9-.5-4v-1c7.4-5.2 15.4-9.4 24-12.5.8-.7 1-1.5 1-2.5 2.2.3 4.2 0 6-1a129.4 129.4 0 0 0 32-11.5c2-2 2.3-4.2 1-6.5z"/><path style="opacity:1" fill="#0b121e" d="M1091.5 321.5h3c.2 2 .7 4 1.5 6a126.8 126.8 0 0 1 9.5 19 70 70 0 0 1 7.5 9l1 10 3.5 3.5c-.5.4-.8 1-1 1.5a83 83 0 0 0 7.5 10 6.5 6.5 0 0 1 4.5-1c1.2 3.2 2.2 7.2 3 12a15 15 0 0 0 3.5 3c.4 4 .2 8-.5 12h3c.2 2.7 0 5.4-.5 8-.9-1.4-1.4-1.2-1.5.5.3 4.6 1.6 8.7 4 12.5-.2 3.8-.2 7.8 0 12a720.1 720.1 0 0 1-11-32 145 145 0 0 0-6-16 548 548 0 0 0-31-70z"/><path style="opacity:1" fill="#1b1d21" d="M414.5 360.5a1318.1 1318.1 0 0 1 1.5 37 25.9 25.9 0 0 0-12.5 10.5 8.4 8.4 0 0 1-4 .5l13-12c1.8-.4 2.8-1.6 3-3.5a258.4 258.4 0 0 1-3-25c.1-2.8.8-5.3 2-7.5z"/><path style="opacity:1" fill="#e1e1d2" d="M414.5 357.5v3a17.8 17.8 0 0 0-2 7.5 258.4 258.4 0 0 0 3 25c-.2 2-1.2 3-3 3.5a191.3 191.3 0 0 0-2-34.5 6.5 6.5 0 0 0 1-4.5h3z"/><path style="opacity:1" fill="#f4f2d5" d="M730.5 338.5a6 6 0 0 1 6.5 3 962.3 962.3 0 0 0 12.5 26 412.6 412.6 0 0 1 2 48 69.5 69.5 0 0 0 .5 26 645.5 645.5 0 0 1 21 27c1.8 1.6 4 2.4 6.5 2.5 6.8 5.3 6.5 10.3-1 15-3.7 2.5-6.7 2-9-1.5a52.9 52.9 0 0 0-13-24c-10.8-10-21-9.3-30.5 2a123.7 123.7 0 0 1-9.5 15.5 12.5 12.5 0 0 1-7 0 4.2 4.2 0 0 1-.5-4.5 204.2 204.2 0 0 0 15.5-35 222.9 222.9 0 0 1 11.5-23 316.8 316.8 0 0 1 6-19c.8-8.4.6-16.7-.5-25a2115.4 2115.4 0 0 0-11-32v-1z"/><path style="opacity:1" fill="#fdfbdf" d="M1068.5 294.5c3 1.4 4.3 3.7 4 7 1.3-.2 2.5.2 3.5 1a56.5 56.5 0 0 0 1.5 9 22 22 0 0 0 7.5 6l3 11a9.2 9.2 0 0 0 4.5 2c1.1 1.3 2.1 2.8 3 4.5l-1 1a49.2 49.2 0 0 0 5 6.5 34 34 0 0 1 1.5 8c2.5 2.3 4.5 5 6 8a33 33 0 0 0 9 22c.9 3.4 2 6.8 3.5 10a3 3 0 0 0 3 1 145 145 0 0 1 6 16 50 50 0 0 0 .5 10l1-1a9.7 9.7 0 0 1 2 7l-3-5c0 3.6 1.3 6.6 4 9 .5 4.7 1.4 9.4 2.5 14 2.3 3.6 3.8 7.6 4.5 12 1 1.6 2.1 3 3.5 4v4c-1 6.1 0 12 3 17.5-.2.9-.6 1.7-1 2.5 3.8 21.3 7 42.6 9.5 64 1.4 25.3 2.3 50.6 2.5 76v1a129.4 129.4 0 0 0-4.5 16c-.5 6.7-.7 13.3-.5 20h-3v-124h-3c-.2-5.7-.9-11.4-2-17a3.6 3.6 0 0 1-1.5-1c-.1-3.7-1-7.2-2.5-10.5.9-1.2 1.6-2.6 2-4a170 170 0 0 1-2.5-16.5c-1.3 1.4-2.2 1-2.5-1V476a18 18 0 0 1-2.5-9.5 11.4 11.4 0 0 1-2.5-2c2-1.5 3-3.5 3-6h-4c0-1.6.3-3 1-4.5-.6-4.6-2-8.7-4-12.5h-3a25 25 0 0 1 .5-7c1.8-1.4 3-3.2 3.5-5.5a52.6 52.6 0 0 0-7-1.5v-13h-4c.2-4-.5-7.8-2-11.5.5-.4.8-1 1-1.5a42.1 42.1 0 0 1-4.5-14c-1.2-.5-2-1.3-2.5-2.5-.7-4.7-2.5-8.9-5.5-12.5-1-3.1-1.2-6.1-1-9a28 28 0 0 0-9.5-6 85.5 85.5 0 0 0-2-18h-3a9.1 9.1 0 0 0-1-5 25.4 25.4 0 0 1-4.5-4 26.1 26.1 0 0 0-8.5-17 11.2 11.2 0 0 1-2-6h-3a63.8 63.8 0 0 1-3-11l1-2z"/><path style="opacity:1" fill="#f8f5d9" d="M544.5 360.5c0 1-.2 1.8-1 2.5a100.8 100.8 0 0 0-24 12.5c-2.6-1-5.2-1.2-8-.5a99.2 99.2 0 0 0-20 11.5c-2.7 3.6-2 6.6 2 9 1.6 12.2 5 23.9 10 35 .5 2 1.7 3.7 3.5 5 .5 2.6.7 5.3.5 8 3.5.6 6.1-.6 8-3.5a42.5 42.5 0 0 1 13 0 409.2 409.2 0 0 0 22 11.5c1.8.9 3.1 2.2 4 4a156.4 156.4 0 0 1-22 1c-3.6 0-7 .7-10 2-12.5-1-17.4 4.7-14.5 17 6.1 10 13.5 19 22 27 .5 1 .6 2 .5 3a8.4 8.4 0 0 0-4 .5c-2 .9-3.6 2-5 3.5-4 2.8-7.1 6.5-9.5 11-3.5 2.7-5.5 1.7-6-3 0-5-.9-9.6-2.5-14a240.8 240.8 0 0 0-7.5-20c-2.9-7-7.7-8.8-14.5-5.5a73.4 73.4 0 0 0-14.5 6.5l-.5-1.5 19.5-25.5a65.5 65.5 0 0 0-.5-37c0-2.7-.6-5-2-7a433.8 433.8 0 0 1-9.5-27c-.7-3-.7-6 0-9a53.3 53.3 0 0 1 34.5-18.5 174.8 174.8 0 0 1 36 1.5z"/><path style="opacity:1" fill="#f6f4db" d="M110.5 288.5c-.2 1.3.2 2.5 1 3.5a68.3 68.3 0 0 0-6.5 11.5 3.6 3.6 0 0 0-1.5-1 25.3 25.3 0 0 0 0 13 6.5 6.5 0 0 0-5 3c-1 6-2.8 11.7-5.5 17-.6 2.3-2 4-4 5-.2 4.6-2 8.8-5.5 12.5.5.4.8 1 1 1.5a32.4 32.4 0 0 1-4.5 3c-1.4 10-5 19-11 27a41 41 0 0 0-.5 9 6.4 6.4 0 0 0-5 3c.2.6.5 1 1 1.5a36 36 0 0 0-3.5 4.5 78 78 0 0 1-4 19 14.5 14.5 0 0 0-4.5 4.5c-1 .6-1.8.5-2.5-.5a39.2 39.2 0 0 1-2.5 8c1 3 0 5.3-3 7 .8 1.6 2.2 2.3 4 2-.7 3.3-2.5 6-5.5 8 0 4.3-1.2 8.3-3.5 12 .3 1.2.8 1.2 1.5 0a32.7 32.7 0 0 1 1 20c-1.2.5-2 1.3-2.5 2.5a27.2 27.2 0 0 1-5 15c1.3 2 2 4.4 2 7l-.5 6.5-1-3a11.4 11.4 0 0 1-1.5 3.5 14.8 14.8 0 0 1 2 6.5c-2.7-.5-4.6.5-5.5 3a112.9 112.9 0 0 1-3.5 29 52.1 52.1 0 0 0 3 9c.3 2.4-.4 3-2 2a580.7 580.7 0 0 0-.5 59 34.8 34.8 0 0 1 2 10l1-1a7 7 0 0 0 2.5 3.5 42 42 0 0 1 0 10 4.5 4.5 0 0 1 2 1.5 498.6 498.6 0 0 0-1 16.5 93.2 93.2 0 0 1 4 15.5c0 3.3-1 6-3 8.5a123.1 123.1 0 0 1 6 8.5c1 1.1 1.8 1.1 2.5 0a12.5 12.5 0 0 1 0 7l-1-1c-1 4.2 0 8 3 11l1 13a36.4 36.4 0 0 1 4 8c-1 4.4 0 8.4 3 12 .8 4.3.6 8.4-.5 12.5l6 6a13 13 0 0 1 1 5.5 5 5 0 0 1 3 .5 5 5 0 0 0-2 3.5 187.7 187.7 0 0 0 4 14.5c-1.7 2.9-2.4 6-2 9.5a8796 8796 0 0 0-7.5-17 1722.3 1722.3 0 0 1-16.5-55v-1a606.5 606.5 0 0 1-9-48c-.2-5.5-.8-10.9-2-16a514 514 0 0 1-3-116l3-23c2.4-7.3 3.4-15 3-23a401.6 401.6 0 0 1 11-51c1.4-2 2-4.3 2-7a460.2 460.2 0 0 1 12-40l1-2 2-1 3-12c13-34.2 29.3-66.5 49-97z"/><path style="opacity:.99" fill="#091426" d="M953.5 124.5c116.1 91.8 188.6 210.8 217.5 357 4.3 24.7 7.5 49.3 9.5 74v69c-15.3 185.1-96.6 333.3-244 444.5a599.8 599.8 0 0 1-312 111.5h-69c-185.1-15.3-333.3-96.6-444.5-244A599.8 599.8 0 0 1-.5 624.5v-49h3a26 26 0 0 0 0-13.5c-.1-1.7.6-2.8 2-3.5a340.2 340.2 0 0 0 1.5-26 18.8 18.8 0 0 0 4.5-5.5l-2-2c.4-2.6 1.4-5 3-7-1-.5-1.7-1.4-2-2.5l-3-11.5c1.6-3.3 2.4-6.8 2.5-10.5 1.3-.5 2.8-.5 4.5 0a57 57 0 0 1 2-9.5 27.3 27.3 0 0 0-4-9c2.1-2.3 3.3-5.2 3.5-8.5a54.5 54.5 0 0 0 4.5-2 34.6 34.6 0 0 0 6-11c-5.1-6.9-6-14.2-2.5-22 1-.8 2.2-1.2 3.5-1 0-1.6-.4-3-1-4.5a24.7 24.7 0 0 0 3-8c3.4-2 6.1-4.9 8-8.5a345.9 345.9 0 0 0 6.5-18c2-1 4.2-1.3 6.5-1v-14h3v-10h3c-1.7 9.2-2.2 18.5-1.5 28 1.3-1.3 2.5-1.3 3.5 0l-1 4-1 2c-1 0-1.7.5-2 1.5a67 67 0 0 0-1.5 5.5c-3.5 3.2-5 7-4.5 11.5A269 269 0 0 1 37 452.5c-3.2 1.9-3.3 4-.5 6.5-.7 2.7-2.2 4.9-4.5 6.5a242.4 242.4 0 0 1-2.5 33 1074.3 1074.3 0 0 0-2 23l-3 23c-2 9-3 18.3-3.5 28a1251.4 1251.4 0 0 1-1.5 49 56 56 0 0 1 1 32c1.9-.2 3.4.5 4.5 2a574.5 574.5 0 0 0 7 52c2.8 4.4 3.7 9 2.5 14 1 1.4 2.4 2.4 4 3v1c0 6-.3 12-1 17.5 1.6 1.8 2.4 4 2.5 6.5 1.6-.6 2.9.1 4 2l1 12c1 .8 2.2 1.2 3.5 1 .5 3.9.5 7.9 0 12a5 5 0 0 1 3 .5 4 4 0 0 0-2 3.5 22.5 22.5 0 0 0 9.5 15 42.4 42.4 0 0 1 4 12 10 10 0 0 1 4 9c.8-1.1 1.6-1.1 2.5 0a2645.2 2645.2 0 0 0 11 24c-.1 3.5.9 6.7 3 9.5-1.2 2.6-.2 3.8 3 3.5a13 13 0 0 0 1 5.5 8 8 0 0 0-1.5 7.5 344 344 0 0 1 5 5c.7-2.4 1.7-2.4 3 0l3 11c3.3 2.1 5.1 5.1 5.5 9a31.2 31.2 0 0 1 6 4.5c-.8 2.5-1 5.3-.5 8.5l3 2c.3-1.5 1-2.9 2-4a20.4 20.4 0 0 1 3.5 6.5 4 4 0 0 1-1 2 36.4 36.4 0 0 1 8.5 5.5c-.7 7 2.3 11.3 9 13a20.6 20.6 0 0 1 2 6c.7-.8 1.5-1 2.5-1a55 55 0 0 1 7 7 566.6 566.6 0 0 0 288 196.5 598.4 598.4 0 0 0 127 21.5 242.8 242.8 0 0 0 62 0c13-1.2 26-2.2 39-3 4.2-.3 8.2-1 12-2 5 .3 9.6-.4 14-2 2.7 0 5-.6 7-2a25 25 0 0 0 12-2 9.2 9.2 0 0 1 5-1c6.6.1 13-.5 19.5-2 1.1 0 2.1.4 3 1 4.1-.6 7.6-2.3 10.5-5 6.3-1.3 12.5-.6 18.5 2 3.6-1.4 6.1-4.1 7.5-8 2.2-2.3 4.6-2.5 7-.5-1.3 1.3-1.1 2.5.5 3.5.7-2.4 1.7-2.4 3 0 4.1-4 9-6.8 14.5-8.5-1.2-1.6-.9-3 1-4a8 8 0 0 1 7 1.5 50.4 50.4 0 0 1 13-2.5l3.5-4.5c3.5 2.6 5.7 1.6 6.5-3 1.9.2 3.4-.5 4.5-2 2.8.4 5.4.4 8 0a13.2 13.2 0 0 0 4.5-3 15.8 15.8 0 0 1 2 4 3 3 0 0 0 3 1c0-2-1-3.6-3-4.5a60.5 60.5 0 0 0 3.5-6.5c2-1.4 4.2-2.2 6.5-2.5 0-1.4.3-2.9 1-4.5a3 3 0 0 1 3-1c-.2 2.2.6 3.9 2.5 5 4.5-3.8 9.7-7.1 15.5-10 1.7 1 3 .5 4-1.5-.2-.9-.6-1.7-1-2.5 2-1.5 3-3.5 3-6 2.8-.1 4.2.9 4 3a6.8 6.8 0 0 0 1.5-3c1 1.3 2 1.3 3 0 .3.8.8 1.5 1.5 2 3.3-1.6 6-4 8-7 1.2-1 2.5-1.3 4-1v-3c2.4.1 3.1-.7 2-2.5a9.4 9.4 0 0 0 1.5-2.5c1.9.2 3.7.2 5.5 0a4.5 4.5 0 0 0 1.5-2 8.8 8.8 0 0 1 1.5 5c3.3.3 6.4 0 9.5-1 2.2-4.3.7-6-4.5-5-.3-5.5 1.7-6.8 6-4a13 13 0 0 1 6-6 3.6 3.6 0 0 0-1-1.5 7 7 0 0 0 3.5-2.5c.4.5 1 .8 1.5 1l6-6c-1.3-.8-1.8-1.8-1.5-3a27 27 0 0 1 6.5-1.5c1.5-4 4.1-6.8 8-8.5a22.5 22.5 0 0 0 3-4c2.2 2.3 4.9 3.6 8 4a79.8 79.8 0 0 1 5-12c2.4-1.2 3.4-3.2 3-6h4a6.9 6.9 0 0 1 1-4c-2.2-1.7-1.7-3 1.5-4 .3-1.3.8-2.4 1.5-3.5 4.2-.7 5.9-3.2 5-7.5 2.4.2 4.7 0 7-.5 1.3-3.4 3.5-4.9 6.5-4.5 3-3.1 5.7-6.3 8.5-9.5 1.3-.3 2.4-.8 3.5-1.5.2-1.8.7-3.4 1.5-5 3.3-1.8 6-4.3 8-7.5-1-1.3-2.4-1.6-4-1 3.3-3.8 6-8 8-12.5 0-.7.3-1 1-1a16.1 16.1 0 0 0 5-2 87.3 87.3 0 0 1 4-6.5c7-2.7 11-7.8 11.5-15.5 2.5-3.3 5.6-5.6 9.5-7 1.3-3.4 2.8-6.7 4.5-10 1 1.6 2.5 2.3 4.5 2-.2-3 0-6 .5-9a8 8 0 0 1 5.5-2c-1.4-7.4 1.3-12.6 8-15.5-1-.5-1.7-1.4-2-2.5.9-2.1 2-4.1 3.5-6 1-2.2 1.5-4.6 1.5-7a1656.9 1656.9 0 0 0 31-63c1.8-2.3 3.2-5 4-8a9.2 9.2 0 0 0 4.5-2c.3-2.4 1.1-4.6 2.5-6.5a6.8 6.8 0 0 1 0-6.5 49 49 0 0 0 10.5-31l3-2 2 6c1-3.6.1-6.6-2.5-9a3 3 0 0 1 3-1c1.4-3.8 2.4-7.8 3-12a10.2 10.2 0 0 0-1-3 50.3 50.3 0 0 0 2.5-13c2.5-3.5 3.3-7.1 2.5-11a13.4 13.4 0 0 1 2.5-6l1-10 3-3c.1-9.4 1.1-18.8 3-28l3-4c0-7.4 1-14.8 2.5-22a457 457 0 0 1-3-89.5c-.4-3.4-1.4-6.6-3-9.5 0-6 .3-12 1-18l-.5-3c-.7-1.3-1.3-1.3-2 0a76.3 76.3 0 0 1-2-15c-.7-.8-1.5-1-2.5-1a851 851 0 0 1-5.5-30c-.9-3.9-2-7.6-3.5-11v-4a87.8 87.8 0 0 1-4-18c-.2-4.2-.2-8.2 0-12-2.4-3.8-3.7-8-4-12.5.1-1.7.6-1.9 1.5-.5.5-2.6.7-5.3.5-8h-3c.7-4 .9-8 .5-12a15 15 0 0 1-3.5-3c-.8-4.8-1.8-8.8-3-12-1.6-.2-3.1.1-4.5 1a83 83 0 0 1-7.5-10c.2-.6.5-1 1-1.5l-3.5-3.5-1-10a70 70 0 0 0-7.5-9 126.8 126.8 0 0 0-9.5-19 20.3 20.3 0 0 1-1.5-6h-3l-4-6c-24-43.3-53-83-87-119a38 38 0 0 0-5.5-10 94.8 94.8 0 0 1-19.5-20.5 11.3 11.3 0 0 1-3.5-1.5 52.6 52.6 0 0 1-1.5-7 8.8 8.8 0 0 1-8-4.5c2-1.2 2.4-2.7 1-4.5a37.8 37.8 0 0 0-9-3 3.6 3.6 0 0 0-1.5 1 5.3 5.3 0 0 0-3.5-3 51.3 51.3 0 0 1-2-6 110.8 110.8 0 0 1-10.5-4c-.6-4.1-2.8-7-6.5-8.5 3.4-.3 4.7-2.1 4-5.5a13 13 0 0 1 5 .5c2.6 4.1 6.2 6.5 11 7 3.6 3.3 4.6 2.4 3-2.5z"/><path style="opacity:1" fill="#989a96" d="M284.5 693.5c4 .1 7.7 1.1 11 3a27 27 0 0 1-11-3z"/><path style="opacity:1" fill="#949889" d="M278.5 691.5c2.4-.2 4.4.4 6 2-2.4.2-4.4-.4-6-2z"/><path style="opacity:1" fill="#deddca" d="M246.5 672.5a4 4 0 0 1 3.5 2 4 4 0 0 1 2-1c1.3 2 3.1 3.1 5.5 3.5l2 4c3 .5 6 .7 9 .5-.3 2.7.3 5 2 7a96.7 96.7 0 0 1-24-16z"/><path style="opacity:1" fill="#181d25" d="M1152.5 502.5c1 0 1.8.2 2.5 1 .2 5 .8 10 2 15 .7-1.3 1.3-1.3 2 0l.5 3c-.7 6-1 12-1 18 1.6 3 2.6 6 3 9.5a457 457 0 0 0 3 89.5 108.9 108.9 0 0 0-2.5 22l-3 4c-1.9 9.2-2.9 18.6-3 28l-3 3-1 10a13.4 13.4 0 0 0-2.5 6c.8 3.9 0 7.5-2.5 11a50.3 50.3 0 0 1-2.5 13c.5 1 .8 2 1 3-.6 4.2-1.6 8.2-3 12a3 3 0 0 0-3 1 8.5 8.5 0 0 1 2.5 9l-2-6-3 2a49 49 0 0 1-10.5 31 6.8 6.8 0 0 0 0 6.5 14.3 14.3 0 0 0-2.5 6.5 9.2 9.2 0 0 1-4.5 2v-2a588 588 0 0 0 38-178v-1a585 585 0 0 0-5-119z"/><path style="opacity:1" fill="#f7f5dc" d="M176.5 496.5a156.5 156.5 0 0 0-11 57 85.2 85.2 0 0 0 1 26 240 240 0 0 0 7.5 37 53 53 0 0 0 3.5 7c10.2 28.9 27.2 53 51 72.5a200.7 200.7 0 0 0 33 18.5c1.8 2 4.2 3 7 3a3019.3 3019.3 0 0 1 15 4c2 1.4 4.3 2 7 2a487.3 487.3 0 0 0 36 1c-9.5.8-19.2 1.3-29 1.5 2.3 1.5 2.5 3.3.5 5.5-2-3-4.7-3.7-8-2a54.1 54.1 0 0 0-18.5-3.5 7.3 7.3 0 0 0-3-2 6.9 6.9 0 0 0 5-3 38.9 38.9 0 0 1-7-1.5 6.8 6.8 0 0 0-1.5 3 75.2 75.2 0 0 0-9-4 60.1 60.1 0 0 1-14.5 1 6 6 0 0 0-3.5-6 19.5 19.5 0 0 0-7.5-1v-3h-3a5 5 0 0 0-.5-3 83.4 83.4 0 0 1-12.5-7.5c-.8-1-1.2-2.2-1-3.5-5-1.4-8-4.7-9-10-1.6.2-3.1-.1-4.5-1-1.8-7.3-5.8-13-12-17a136.3 136.3 0 0 1-4.5-11 13.3 13.3 0 0 0-6-3 41.9 41.9 0 0 1 0-15.5 78.8 78.8 0 0 0-8-17 127 127 0 0 0-5-26c1.6-4.4.8-8.2-2.5-11.5l-1-12a43.5 43.5 0 0 0-3.5-5c1.6-4.7 1.3-9.2-1-13.5a623.4 623.4 0 0 0 11-32.5 19.4 19.4 0 0 1 3-20 17.9 17.9 0 0 1 6-4z"/><path style="opacity:1" fill="#5a5c55" d="M27.5 660.5a83.7 83.7 0 0 1 2 16c-1.6-5-2.2-10.4-2-16z"/><path style="opacity:1" fill="#859081" d="M350.5 637.5a293.8 293.8 0 0 1 11.5 16 14 14 0 0 0 6.5 4.5 62.7 62.7 0 0 0 7 8 431.6 431.6 0 0 1 23 16c2 3.6 5 5.6 9 6a81.8 81.8 0 0 0 26 14 220.1 220.1 0 0 1 18 10l24 6.5a201.5 201.5 0 0 0 19 7.5 214.7 214.7 0 0 0 36 6c4.3.6 8.3 2 12 4a773 773 0 0 0 160-3 686 686 0 0 1 29-6c8.3-3.4 17-6.1 26-8l2-2a74.5 74.5 0 0 0 12-2 144.6 144.6 0 0 1 15-6c1.7-1 3-2.3 4-4a488.2 488.2 0 0 0 34-17c1.6-2 3.6-3.6 6-4.5a58.8 58.8 0 0 1 6.5-8 8.4 8.4 0 0 1 .5 4 7704.6 7704.6 0 0 1-7 12 608.6 608.6 0 0 0-18.5 22 659.4 659.4 0 0 1-30.5 28c-3.7 1.6-6.7 4-9 7a1568 1568 0 0 1-40 22.5 870 870 0 0 0-29 11.5c-67.7.3-135.4 0-203-1a610.8 610.8 0 0 1-44-20 236 236 0 0 1-106-124z"/><path style="opacity:1" fill="#2a3738" d="M856.5 642.5a65 65 0 0 1-10 22 423.3 423.3 0 0 1 10-22z"/><path style="opacity:1" fill="#081223" d="m862.5 515.5 4 4c-1 2.6-1.2 5.3-.5 8l1-3a56.3 56.3 0 0 0 2.5 7 11.5 11.5 0 0 1 2.5-1 7.2 7.2 0 0 0 4.5 2v5c-2.2-.2-3.9.6-5 2.5a75.7 75.7 0 0 1 0 8 40.3 40.3 0 0 0 4.5 13.5c.4 15.2.5 30.1.5 45 2.4-.2 4.8.1 7 1a47 47 0 0 1 6.5-5c1.9-2.6 1.7-5-.5-7 1.6-3 2.5-6.4 2.5-10a16.5 16.5 0 0 1 3.5-5.5 7.3 7.3 0 0 0-3-2 7.8 7.8 0 0 0 2.5-5.5c4.1 10 7.3 10 9.5 0a3 3 0 0 1 3-1 2398.4 2398.4 0 0 0-29.5 82 30458.2 30458.2 0 0 1-16.5 29c-35 56-83.6 95-146 117h-175a305.8 305.8 0 0 1 22.5-2 1205.3 1205.3 0 0 0 97.5 0v-5a41.7 41.7 0 0 0-9-1v-3a481.8 481.8 0 0 0-47.5 2c-9.3.2-18.5-.4-27.5-2l-6 1a3.6 3.6 0 0 1-1 1.5 181.3 181.3 0 0 1-45.5-2.5 117.6 117.6 0 0 1-10.5 4 32.4 32.4 0 0 1-2.5 6 15.3 15.3 0 0 0-4.5-1.5c4.1-2.5 3.8-4.3-1-5.5v-3c-3.5.2-4.5-1.1-3-4l35 2c40.7-1.2 81.7-1.2 123 0 14.3-.8 28.6-1.3 43-1.5a75 75 0 0 1 11.5-2.5c2.8 1.8 6 2.5 9.5 2a18.5 18.5 0 0 1 .5-6c3.6-3 7.7-4.7 12.5-5a6.8 6.8 0 0 0 1-4c5.5 0 10.8.4 16 1.5-2.5-2-2.5-4 0-6l-2-1c2.3-3.7 5.7-5.7 10-6 1.8-2.5 4.1-4.1 7-5a6.9 6.9 0 0 0 3-4.5c2.3-3 5.3-5.4 9-7a88.7 88.7 0 0 0 33-28.5c2 .3 4 .3 6 0 1.3-.7 1.3-1.3 0-2a5 5 0 0 0-3-.5c.7-4 3-6.3 7-7a5 5 0 0 0 .5 3l1-1a109.7 109.7 0 0 0 4.5-14 5 5 0 0 1 6 0 7.5 7.5 0 0 0 .5-5c1-.8 2.2-1.2 3.5-1 .6-5.3 2-10.3 4-15 2.2.3 4-.3 5.5-2a147.4 147.4 0 0 0 3.5-9 12.4 12.4 0 0 1 4-2.5c-.7-4.2-.7-8.2 0-12l3-1a84 84 0 0 0 6-7.5 13.1 13.1 0 0 0 1-7h-3a121.2 121.2 0 0 1 1.5-13 94.8 94.8 0 0 0 4.5-17.5 23 23 0 0 0-1-5 123.7 123.7 0 0 0 1.5-30.5 9.9 9.9 0 0 0-2-5l-1-22a45.1 45.1 0 0 1-5.5-21z"/><path style="opacity:1" fill="#737572" d="M324.5 624.5c1.4 2.7 2 5.7 2 9-1.4-2.7-2-5.7-2-9z"/><path style="opacity:1" fill="#0e1721" d="M853.5 504.5a14.6 14.6 0 0 1 5 4c.4 3 1.7 5.3 4 7 .1 7.5 2 14.5 5.5 21l1 22a9.9 9.9 0 0 1 2 5 123.7 123.7 0 0 1-1.5 30.5 23 23 0 0 1 1 5 94.8 94.8 0 0 1-4.5 17.5 121.2 121.2 0 0 0-1.5 13h3a13.1 13.1 0 0 1-1 7 84 84 0 0 1-6 7.5l-3 1c-.7 3.8-.7 7.8 0 12a12.4 12.4 0 0 0-4 2.5 147.4 147.4 0 0 1-3.5 9 5.8 5.8 0 0 1-5.5 2c-2 4.7-3.4 9.7-4 15-1.3-.2-2.5.2-3.5 1a7.5 7.5 0 0 1-.5 5 5 5 0 0 0-6 0l7-12a166.8 166.8 0 0 1 9-15 65 65 0 0 0 10-22 345.6 345.6 0 0 0 9-35c5.3-35.6 1.3-69.9-12-103z"/><path style="opacity:1" fill="#eeeeda" d="M319.5 554.5c-.2 15 0 30 .5 45 .4 8.4 2 16.4 4.5 24v1c0 3.3.6 6.3 2 9a26.3 26.3 0 0 0 2 5 135.8 135.8 0 0 0 11.5 29c.7 4 .7 8 0 12a33 33 0 0 1-6.5 9c-1-4.7.3-8.3 4-11a8.3 8.3 0 0 1-1-7.5c-2-3.2-3.1-6.7-3.5-10.5a13.7 13.7 0 0 1-6-13c-3-3-5.2-6.4-6.5-10.5l1-1c-1.8-4.9-2.8-10-3-15.5 1.2-5.2 0-9.9-3.5-14a140.6 140.6 0 0 1-2.5-26h3c.4-6.4.4-12.7 0-19a20 20 0 0 1 4-6z"/><path style="opacity:1" fill="#181d23" d="M183.5 480.5a151.2 151.2 0 0 0-5 20 3.6 3.6 0 0 0-1.5 1l-1 12c-2.7 2-4.2 5-4.5 8.5a10 10 0 0 1-2.5 9.5 359.5 359.5 0 0 0 1.5 55.5c-1.6 2.9-1 5.4 1.5 7.5a419.2 419.2 0 0 0 4.5 22c2 2.4 2.3 4.7 1 7a53 53 0 0 1-3.5-7 240 240 0 0 1-7.5-37c-.2-8.7-.6-17.3-1-26 .1-19.7 3.8-38.7 11-57l7-16z"/><path style="opacity:1" fill="#202528" d="M319.5 554.5h1c-.2 14.7 0 29.3.5 44a86 86 0 0 1 3.5 25c-2.6-7.6-4-15.6-4.5-24-.5-15-.7-30-.5-45z"/><path style="opacity:1" fill="#757a75" d="M198.5 596.5c1.3 2.4 2 5 2 8-1.5-2.3-2.2-5-2-8z"/><path style="opacity:1" fill="#b5b7a8" d="M195.5 581.5c2.5 4.2 3.5 8.9 3 14a27 27 0 0 1-3-14z"/><path style="opacity:1" fill="#0d1723" d="M323.5 538.5a1313.7 1313.7 0 0 0 0 40c1.3-.2 2.5.2 3.5 1 .5 11.3.7 22.7.5 34h3c.7 4 1.3 4 2 0 2-.2 3.7.5 5 2l3-1.5a284 284 0 0 1-4-53c.9-2.7 1.7-2.9 2.5-.5.3-3.6 1.1-7 2.5-10a255 255 0 0 0 5 76c-1.3 0-2-.7-2.5-2a92 92 0 0 0-3-9 6.5 6.5 0 0 1-4.5 1c-.4 2.2-1.4 4-3 5.5a19.3 19.3 0 0 1 3 6.5c-1 4-1.2 8-.5 12l-3 3a77.6 77.6 0 0 0 0-10 4.6 4.6 0 0 1-4.5 2v3a26.3 26.3 0 0 1-2-5c0-3.3-.6-6.3-2-9v-1a86 86 0 0 0-3.5-25c-.5-14.7-.7-29.3-.5-44a39.7 39.7 0 0 1 1-11l2-5z"/><path style="opacity:1" fill="#eaebdc" d="M1143.5 461.5c1.5 3.4 2.6 7.1 3.5 11a851 851 0 0 0 5.5 30 585 585 0 0 1 5 119c-.2-25.4-1-50.7-2.5-76a1125.2 1125.2 0 0 0-9.5-64c.4-.8.8-1.6 1-2.5-3-5.5-4-11.4-3-17.5z"/><path style="opacity:1" fill="#686e63" d="M165.5 553.5c.4 8.7.8 17.3 1 26a85.2 85.2 0 0 1-1-26z"/><path style="opacity:1" fill="#f5f4da" d="M932.5 504.5a72 72 0 0 0 1 11c-1.6-.1-2.8.5-3.5 2-.5 4-.5 8 0 12a15.8 15.8 0 0 0-7.5 6 43 43 0 0 1 4 9c-.5 2.8-1.8 5-4 6.5a9 9 0 0 1-2 8.5c1-.2 2 .3 3 1.5a18.2 18.2 0 0 0-7.5 13.5c-2 5.3-4.4 10.5-7.5 15.5a6 6 0 0 0 0 6.5 7.2 7.2 0 0 1-2 2.5l2 1c-1.8 1.3-3.1 3-4 5a5 5 0 0 1-3 .5 58.4 58.4 0 0 1-2 10.5c.2.9.6 1.7 1 2.5a72.8 72.8 0 0 0-7 13 3.6 3.6 0 0 0 1 1.5c-1.7 3.6-3 7.4-3.5 11.5-.9-1.2-1.7-1.2-2.5 0a9.3 9.3 0 0 0-2 8.5c-.5 3.2-2.3 5-5.5 5.5l-1 5a44.1 44.1 0 0 1-7.5 6 28 28 0 0 0-1.5 5c-1-1.3-2-1.3-3 0a63.8 63.8 0 0 1-3.5 8h-3l16.5-29a2398.4 2398.4 0 0 1 29.5-82v-1l25-66z"/><path style="opacity:1" fill="#797a70" d="M326.5 520.5a40.6 40.6 0 0 1-4 16 102 102 0 0 1 4-16z"/><path style="opacity:1" fill="#181d21" d="M347.5 471.5a171.7 171.7 0 0 1-1.5 12 13.2 13.2 0 0 0-5 3l-1 9a45 45 0 0 0-5 5c-.6 3.4-2 6.4-4 9-.8 10.2-3.3 20-7.5 29l-2 5c-.2-2.5.1-4.8 1-7a40.6 40.6 0 0 0 4-16 309.6 309.6 0 0 1 17-44 22.8 22.8 0 0 1 4-5z"/><path style="opacity:1" fill="#a1a698" d="M29.5 498.5h1c.4 8-.6 15.7-3 23l2-23z"/><path style="opacity:1" fill="#121c26" d="m864.5 477.5 4 6a289.3 289.3 0 0 1 13 36c-1 0-1.8-.2-2.5-1-2.7-5-4.4-10.3-5-16l-1 1a6 6 0 0 0-4-4c.7-7.2-1.1-13.5-5.5-19a5.6 5.6 0 0 0 1-3z"/><path style="opacity:1" fill="#869282" d="M886.5 541.5a571.8 571.8 0 0 0 17.5-46c4.8-8.3 8-17.3 9.5-27 1.3.2 2.5-.2 3.5-1 2.4-6.3 6-11.6 11-16a23.7 23.7 0 0 1 2.5-6 73.9 73.9 0 0 1-15-1 42.6 42.6 0 0 0 16-2 4.7 4.7 0 0 1 .5 5A1885.5 1885.5 0 0 0 890.5 560l-1 1.5a287.8 287.8 0 0 1-3-20z"/><path style="opacity:1" fill="#0a1424" d="M950.5 422.5c7.2 1 9.7 5 7.5 12a1419.3 1419.3 0 0 0-25.5 70l-25 66a6.8 6.8 0 0 0-1-4c2.5-2.9 3.5-6.2 3-10h-4v-5h4c-.2-3.3.5-3.6 2-1a26 26 0 0 1 4-4.5c-2.4-4.9-3.4-10-3-15.5-8.2-1.1-10.5 1.9-7 9 .6 4.7-1.4 6.7-6 6 0 9.3-4.3 15.3-13 18a7.2 7.2 0 0 0-6-2c-.2-1.3.2-2.5 1-3.5 1.6.4 3 .2 4.5-.5a47.7 47.7 0 0 0-.5-16h1a287.8 287.8 0 0 0 3 20l1-1.5A1885.5 1885.5 0 0 1 932 447.5c.8-1.8.6-3.4-.5-5a42.6 42.6 0 0 1-16 2l-14-3c-1.3.3-2.3 1-3 2-.3-1.5-1.3-2.2-3-2v-3c4.2.8 8.6.6 13-.5a3.6 3.6 0 0 0 1-1.5 20.2 20.2 0 0 1-4-8.5c-3.7-.4-7-1.5-10-3.5v6c-2.5 1-4.9 1-7 0a26.4 26.4 0 0 1-8 4c3.2-4.3 7.2-7.6 12-10a42.5 42.5 0 0 0 5-1.5c17.7-.5 35.3-.7 53-.5z"/><path style="opacity:1" fill="#96a18f" d="m901.5 441.5 14 3a73.9 73.9 0 0 0 15 1 23.7 23.7 0 0 0-2.5 6c-5 4.4-8.6 9.7-11 16-1 .8-2.2 1.2-3.5 1a77.3 77.3 0 0 1-9.5 27c-5.3 15.8-11 31.1-17.5 46h-1a76.4 76.4 0 0 0-4-22 289.3 289.3 0 0 0-13-36 6 6 0 0 1 3-6.5 10.4 10.4 0 0 1-.5-7.5 44 44 0 0 0 8.5-6.5l5-1a39.3 39.3 0 0 1 10.5-10.5 98.6 98.6 0 0 1 6.5-10z"/><path style="opacity:1" fill="#87968c" d="M901.5 441.5a98.6 98.6 0 0 0-6.5 10 39.3 39.3 0 0 0-10.5 10.5l-5 1a44 44 0 0 1-8.5 6.5c-.8 2.6-.6 5.1.5 7.5a6 6 0 0 0-3 6.5l-4-6c-1.5-2.7-.8-4.9 2-6.5a425.5 425.5 0 0 0 32-27.5c.7-1 1.7-1.7 3-2z"/><path style="opacity:1" fill="#f1f4dc" d="M899.5 450.5h3a13 13 0 0 1-.5 5 570 570 0 0 0-14.5 17.5 8.4 8.4 0 0 1-4 .5c1.5-4.3 3.6-8.3 6.5-12a145.4 145.4 0 0 0 9.5-11z"/><path style="opacity:1" fill="#10161f" d="M55.5 400.5a460.2 460.2 0 0 0-12 40c-1.4 2-2 4.3-2 7a401.6 401.6 0 0 0-11 51h-1a242.4 242.4 0 0 0 2.5-33c2.3-1.6 3.8-3.8 4.5-6.5-2.8-2.5-2.7-4.6.5-6.5A269 269 0 0 0 47.5 419c-.5-4.5 1-8.3 4.5-11.5a67 67 0 0 1 1.5-5.5c.3-1 1-1.5 2-1.5z"/><path style="opacity:1" fill="#e7e9df" d="M232.5 433.5a61 61 0 0 0-20 21.5 8.4 8.4 0 0 1-4 .5c-1.2-1.2-1.2-2.5 0-4a93.5 93.5 0 0 1 17-19.5c2-1.9 4.3-2.7 7-2.5v4z"/><path style="opacity:1" fill="#222729" d="M232.5 433.5a12 12 0 0 0-1 6 8.4 8.4 0 0 0-4 .5c-2 2.4-4.4 4.4-7 6a14.4 14.4 0 0 0-2.5 5.5 14.5 14.5 0 0 0-4.5 4.5c-1.9.8-3.6.6-5-.5a8.4 8.4 0 0 0 4-.5 61 61 0 0 1 20-21.5z"/><path style="opacity:1" fill="#a19f8f" d="M43.5 440.5c0 2.7-.6 5-2 7 0-2.7.6-5 2-7z"/><path style="opacity:1" fill="#97a290" d="M803.5 432.5a195.8 195.8 0 0 1 50 72 193.7 193.7 0 0 1 12 103 345.6 345.6 0 0 1-9 35 423.3 423.3 0 0 0-10 22 166.8 166.8 0 0 0-9 15 8.4 8.4 0 0 0-.5-4 58.8 58.8 0 0 0-6.5 8c-2.4 1-4.4 2.4-6 4.5a488.2 488.2 0 0 1-34 17c-1 1.7-2.3 3-4 4a144.6 144.6 0 0 0-15 6 74.5 74.5 0 0 1-12 2l-2 2c-9 1.9-17.7 4.6-26 8a686 686 0 0 0-29 6 773 773 0 0 1-160 3c-3.7-2-7.7-3.4-12-4a214.7 214.7 0 0 1-36-6 201.5 201.5 0 0 1-19-7.5l-24-6.5a220.1 220.1 0 0 0-18-10 81.8 81.8 0 0 1-26-14c-4-.4-7-2.4-9-6a431.6 431.6 0 0 0-23-16 62.7 62.7 0 0 1-7-8 14 14 0 0 1-6.5-4.5 293.8 293.8 0 0 0-11.5-16c-.6-4-2-7.7-4-11a255 255 0 0 1-5-76 215.7 215.7 0 0 1 73-128c1 0 1.8-.2 2.5-1l1 8a946.8 946.8 0 0 1 13.5 25.5 48.7 48.7 0 0 0-5.5 10.5c-2.7 2-4 4.6-4 8a23.5 23.5 0 0 0-5 25 35.2 35.2 0 0 0 36.5 22.5 90.2 90.2 0 0 0 17-6.5c2.5 1.5 4.2 3.6 5 6.5 1 11.3 5 21.3 12 30 11.3 6 22.7 6 34 0 3.5-3.2 6.2-6.8 8-11a219.3 219.3 0 0 0 20-2 40.6 40.6 0 0 0 10-7c5.4-12.8 4.4-25-3-37a73 73 0 0 0 12-9 173.9 173.9 0 0 0 23.5 1.5 858.1 858.1 0 0 0 35.5-1.5 1352.4 1352.4 0 0 0 51-7l1 1a14.8 14.8 0 0 0-3 6 80.5 80.5 0 0 1 3.5 15.5c6 9 14.6 13 25.5 12a68.4 68.4 0 0 0 18.5-3c11.8-2.9 17.3-10.6 16.5-23h3a68.8 68.8 0 0 0 1.5 15 33 33 0 0 0 17.5 11.5 150.6 150.6 0 0 0 13.5 3.5c6-.6 11.4-2.5 16.5-5.5a182.7 182.7 0 0 0 12-10.5 44.6 44.6 0 0 0 6.5-34 13.8 13.8 0 0 0-7-8 5 5 0 0 1-.5-3c-2.4.4-4-.6-4.5-3a120.3 120.3 0 0 1 .5-20h4z"/><path style="opacity:1" fill="#f9f1d8" d="M374.5 553.5h9a374.8 374.8 0 0 1 2.5 40 464.8 464.8 0 0 1 4.5 31.5 467 467 0 0 1 7.5 25.5 372.2 372.2 0 0 0 9.5 25c-2.9.2-5.6-.4-8-2a158.1 158.1 0 0 0-9.5-14 816.4 816.4 0 0 1-14-41 149.5 149.5 0 0 1-1.5-65z"/><path style="opacity:1" fill="#f9f2d9" d="M413.5 452.5c4.6-.4 6 1.6 4.5 6a873.6 873.6 0 0 0-25 50 404.3 404.3 0 0 1-9 30c-1.8 2-4 2.4-6.5 1.5a52.7 52.7 0 0 0-3.5-10.5c-.7-3-.7-6 0-9a210.7 210.7 0 0 1 21.5-51c5.4-6.4 11.4-12.1 18-17z"/><path style="opacity:1" fill="#e9e9d7" d="M721.5 431.5c-2 2.7-3.5 5.7-4.5 9-.8 1.6-2 2.6-3.5 3a1831 1831 0 0 0-30-2c-2.8-.4-4-2.1-4-5a78.8 78.8 0 0 0 19-6 13 13 0 0 1-5 4c2 6 6.1 8.4 12.5 7 3 0 5.6-.7 8-2l1 1c.3-2.4 1.1-4.6 2.5-6.5l-4-5a98.6 98.6 0 0 1 2-8 8.4 8.4 0 0 0-4-.5c3.4-2.9 6.6-2.6 9.5 1 .5 3.3.7 6.7.5 10z"/><path style="opacity:1" fill="#0b1526" d="M519.5 375.5v1a5 5 0 0 1-.5 3 57.4 57.4 0 0 0-10.5 14c-1.8 2.2-2.1 4.5-1 7a256.5 256.5 0 0 0 22 25.5c21.4 11.2 44 18 68 20.5 12.9 1.3 25.9 1.1 39-.5 1-.3 1.6-.8 2-1.5a306.8 306.8 0 0 0 23-8.5 227.7 227.7 0 0 0 15-1.5c-.3 5 2 7.3 7 7l30 2c1.4 1.9 3 3.5 5 5-1.4 3.4-2.7 3.5-4 .5a558.6 558.6 0 0 1-29.5-.5 53.2 53.2 0 0 1-7.5 3.5 93.2 93.2 0 0 0-7 6.5 57.2 57.2 0 0 1-15 5.5 17195.3 17195.3 0 0 0-30 5.5h-30a420.2 420.2 0 0 1-32.5-8 3.5 3.5 0 0 0-3 3 476.4 476.4 0 0 1-4 12c-1.7 2-3.9 3-6.5 3a46 46 0 0 1-9-2.5 150.8 150.8 0 0 1-18-11 5 5 0 0 0-3-.5c1.4 9 4.6 17.2 9.5 25a161.1 161.1 0 0 0 16 18c2 9-1.7 13.7-11 14-2.5.2-4.7-.5-6.5-2a8.2 8.2 0 0 0-8-4c0-2.6.6-5 2-7a17 17 0 0 1 5-3.5 8.4 8.4 0 0 1 4-.5 5 5 0 0 0-.5-3c-8.5-8-15.9-17-22-27-2.9-12.3 2-18 14.5-17a77 77 0 0 0 10-1c6.3.2 12.7 0 19-.5 1.2-.2 2.2-.7 3-1.5a8.6 8.6 0 0 0-4-4c.4-.7 1-1.2 2-1.5a14 14 0 0 1-10.5-6.5 3.6 3.6 0 0 1-1.5 1c-1-1.4-2.4-2-4-2v-4a27.9 27.9 0 0 1-11-1.5c1.3-1.8.8-3-1.5-3.5a19.5 19.5 0 0 1-15.5 4 22.4 22.4 0 0 0-2.5-8c-.7.8-1.5 1-2.5 1-5-11.1-8.4-22.8-10-35-4-2.4-4.7-5.4-2-9a99.2 99.2 0 0 1 20-11.5c2.8-.7 5.4-.6 8 .5z"/><path style="opacity:1" fill="#151d29" d="M704.5 414.5c.2 1.3-.2 2.5-1 3.5a15.3 15.3 0 0 0-4.5 1.5 13 13 0 0 0 1.5 9l-2 2a78.8 78.8 0 0 1-19 6c0 2.9 1.2 4.6 4 5-5 .3-7.3-2-7-7a227.7 227.7 0 0 1-15 1.5 306.8 306.8 0 0 1-23 8.5c6.5-3.8 13.5-7 21-9.5a66.2 66.2 0 0 0 17-4c10-4.5 19.3-10 28-16.5z"/><path style="opacity:1" fill="#fef5db" d="M343.5 476.5a309.6 309.6 0 0 0-17 44 102 102 0 0 0-4 16c-.9 2.2-1.2 4.5-1 7a39.7 39.7 0 0 0-1 11h-1a20 20 0 0 0-4 6c.4 6.3.4 12.6 0 19h-3c0 8.8.9 17.5 2.5 26 3.5 4.1 4.7 8.8 3.5 14 .2 5.5 1.2 10.6 3 15.5l-1 1c1.3 4 3.5 7.6 6.5 10.5-.5 5.3 1.5 9.7 6 13 .4 3.8 1.5 7.3 3.5 10.5-.9 2.6-.6 5 1 7.5-3.7 2.7-5 6.3-4 11a48 48 0 0 1-38 8c-3.3-1.9-7-2.9-11-3a7.1 7.1 0 0 0-6-2l-8-3a8.7 8.7 0 0 1-2-7 41 41 0 0 1-9-.5l-2-4a7.8 7.8 0 0 1-5.5-3.5 4 4 0 0 0-2 1 4 4 0 0 0-3.5-2 135.7 135.7 0 0 1-46-68c0-3-.7-5.6-2-8v-1c.5-5.1-.5-9.8-3-14a139.8 139.8 0 0 1-.5-44 138.7 138.7 0 0 1 36.5-77 23.1 23.1 0 0 0 8 2c-.3-2.3 0-4.5 1-6.5 4-.4 7.7-1.5 11-3.5a8.4 8.4 0 0 1 .5-4c1 2 2.4 3 4.5 3l1-6c3.4-.8 6.4-2.4 9-5l3 2 3.5-5c.7 1.1 1.6 1.1 2.5 0a4.5 4.5 0 0 1 1.5 2c2.9-4.1 6.9-6.8 12-8 1.7.1 1.9.8.5 2a3 3 0 0 0 3 1c.5-3.5 2.3-4.5 5.5-3 3.7-.3 7.2-1.3 10.5-3a2036.8 2036.8 0 0 0 38 3.5c6.8 3.8 9.1 10 7 18.5a30 30 0 0 0-5 7.5l2 2c-2.4.6-4.9 1.8-7.5 3.5-.6 1-.5 1.8.5 2.5a68 68 0 0 0-5.5 8.5c-1 2.5-.4 4.5 1.5 6 .5-2.3 1.8-3.6 4-4z"/><path style="opacity:1" fill="#eaeadd" d="M1128.5 407.5a720.1 720.1 0 0 0 11 32 87.8 87.8 0 0 0 4 18c-1.4-1-2.5-2.4-3.5-4-.7-4.4-2.2-8.4-4.5-12a103.7 103.7 0 0 1-2.5-14c-2.7-2.4-4-5.4-4-9l3 5c.3-2.5-.4-4.8-2-7l-1 1a50 50 0 0 1-.5-10z"/><path style="opacity:1" fill="#859180" d="M494.5 527.5a6.8 6.8 0 0 0 0 7c7 5.6 14 5.2 20.5-1a73.6 73.6 0 0 0 2-11 6.4 6.4 0 0 1 4.5-5 15 15 0 0 0 6 3c1.8 1.5 4 2.2 6.5 2 9.3-.3 13-5 11-14a161.1 161.1 0 0 1-16-18c-4.9-7.8-8-16-9.5-25a5 5 0 0 1 3 .5 150.8 150.8 0 0 0 18 11 46 46 0 0 0 9 2.5c2.6 0 4.8-1 6.5-3a476.4 476.4 0 0 0 4-12 3.5 3.5 0 0 1 3-3 420.2 420.2 0 0 0 32.5 8 57.2 57.2 0 0 0 30 0l30-5.5c5.4-1.2 10.4-3 15-5.5a173 173 0 0 0 17-6.5 132.8 132.8 0 0 1 25-1.5 98.6 98.6 0 0 1-14.5 29c-1 2.6-1.3 5.3-1 8 5.4 9.8 13 11.7 22.5 5.5a5.7 5.7 0 0 0 3-5.5c2.6-19 13.2-25.4 32-19 1.2 3 3 5.7 5.5 8l1 14c.4.6.9.9 1.5 1 .2 3.4 1.9 6 5 7.5 5.8 1.2 11.1.2 16-3 9.5-6.9 11.3-15.4 5.5-25.5a21.7 21.7 0 0 1-9.5-11 717.2 717.2 0 0 1-1-29 179.5 179.5 0 0 0 11.5-11 36.1 36.1 0 0 1 13.5 13h-4a120.3 120.3 0 0 0-.5 20c.6 2.4 2 3.4 4.5 3a5 5 0 0 0 .5 3c3.4 1.7 5.7 4.4 7 8 2.4 12.3.2 23.6-6.5 34a182.7 182.7 0 0 1-12 10.5c-5 3-10.6 4.9-16.5 5.5a150.6 150.6 0 0 1-13.5-3.5 33 33 0 0 1-17.5-11.5 68.8 68.8 0 0 1-1.5-15h-3c.8 12.4-4.7 20.1-16.5 23a68.4 68.4 0 0 1-18.5 3 26 26 0 0 1-25.5-12 80.5 80.5 0 0 0-3.5-15.5c.5-2.2 1.5-4.2 3-6l-1-1a1352.4 1352.4 0 0 1-51 7 858.1 858.1 0 0 1-35.5 1.5 173.9 173.9 0 0 1-23.5-1.5 73 73 0 0 1-12 9c7.4 12 8.4 24.2 3 37a40.6 40.6 0 0 1-10 7 219.3 219.3 0 0 1-20 2 31.4 31.4 0 0 1-8 11c-11.3 6-22.7 6-34 0-7-8.7-11-18.7-12-30-.8-2.9-2.5-5-5-6.5a90.2 90.2 0 0 1-17 6.5 35.2 35.2 0 0 1-36.5-22.5 23.5 23.5 0 0 1 5-25c0-3.4 1.3-6 4-8a48.7 48.7 0 0 1 5.5-10.5 946.8 946.8 0 0 0-13.5-25.5l-1-8c-.7.8-1.5 1-2.5 1a131.1 131.1 0 0 0 9-8.5 5 5 0 0 1 3-.5 183.5 183.5 0 0 0 18.5 31c4.8 6.7 6.3 14 4.5 22a28.7 28.7 0 0 0-14 26c.5 12.7 6.8 18.1 19 16.5a51.1 51.1 0 0 0 21-18.5c1.2-1.1 2.6-1.3 4-.5a45.3 45.3 0 0 0 7.5 8.5 34.5 34.5 0 0 1 7.5 29z"/><path style="opacity:1" fill="#161d24" d="M503.5 503.5c1.6 4.4 2.5 9 2.5 14 .6 4.7 2.5 5.7 6 3 2.4-4.5 5.5-8.2 9.5-11-1.4 2-2 4.4-2 7a8.2 8.2 0 0 1 8 4 15 15 0 0 1-6-3 6.4 6.4 0 0 0-4.5 5 73.6 73.6 0 0 1-2 11c-6.6 6.2-13.4 6.6-20.5 1a6.8 6.8 0 0 1 0-7c1.2 9.3 6.2 12.1 15 8.5a63.7 63.7 0 0 1 5-8 6.3 6.3 0 0 0-1-3 26.7 26.7 0 0 1-7-1.5l-1.5-3a378 378 0 0 0-1.5-17z"/><path style="opacity:1" fill="#eff0d4" d="M448.5 477.5c10-.8 12.8 3.5 8.5 13-3.5 5.1-7.8 6.1-13 3a29.1 29.1 0 0 1 .5-12.5c1.2-1.4 2.5-2.6 4-3.5z"/><path style="opacity:1" fill="#121a28" d="M721.5 431.5a9.1 9.1 0 0 1-1 5c1.1 1.9 2.5 2.5 4 2a204.2 204.2 0 0 1-15.5 35c-.7 1.6-.6 3.1.5 4.5 2.3.7 4.7.7 7 0a123.7 123.7 0 0 0 9.5-15.5c9.6-11.3 19.7-12 30.5-2-1.1 1.8-1.1 3.6 0 5.5-.2 1.4-.9 2.2-2 2.5-18.8-6.4-29.4 0-32 19 .1 2.4-.9 4.2-3 5.5-9.6 6.2-17 4.3-22.5-5.5-.3-2.7 0-5.4 1-8a98.6 98.6 0 0 0 14.5-29 132.8 132.8 0 0 0-25 1.5 173 173 0 0 1-17 6.5 93.2 93.2 0 0 1 7-6.5 53.2 53.2 0 0 0 7.5-3.5c9.6.4 19.5.6 29.5.5 1.3 3 2.6 2.9 4-.5-2-1.5-3.6-3.1-5-5a5.4 5.4 0 0 0 3.5-3c1-3.3 2.5-6.3 4.5-9z"/><path style="opacity:1" fill="#0b162b" d="M722.5 487.5c-4.3 5.1-9.6 6.3-16 3.5-.9-3.3-.9-6.8 0-10.5 4-.9 8-.9 12 0 2.2-1.2 2.5-3 1-5a6.5 6.5 0 0 1 3-3 81.9 81.9 0 0 1 0 15z"/><path style="opacity:1" fill="#171e27" d="M756.5 460.5a52.9 52.9 0 0 1 13 24 23.7 23.7 0 0 1-5-4 19.7 19.7 0 0 0-2 11c-.6-.1-1.1-.4-1.5-1l-1-14c-2.5-2.3-4.3-5-5.5-8 1.1-.3 1.8-1.1 2-2.5-1.1-1.9-1.1-3.7 0-5.5z"/><path style="opacity:1" fill="#606c69" d="M595.5 469.5h30a57.2 57.2 0 0 1-30 0z"/><path style="opacity:1" fill="#9ca09c" d="M532.5 456.5v1a77 77 0 0 1-10 1c3-1.3 6.4-2 10-2z"/><path style="opacity:1" fill="#474b4a" d="M554.5 455.5c-.8.8-1.8 1.3-3 1.5-6.3.5-12.7.7-19 .5v-1c7.4.2 14.7-.1 22-1z"/><path style="opacity:1" fill="#343f41" d="M638.5 444.5c-.4.7-1 1.2-2 1.5a176.2 176.2 0 0 1-39 .5 274.8 274.8 0 0 0 41-2z"/><path style="opacity:1" fill="#1a1f29" d="M550.5 451.5a409.2 409.2 0 0 1-22-11.5 42.5 42.5 0 0 0-13 0 7.3 7.3 0 0 1-8 3.5 32.5 32.5 0 0 0-.5-8c-1.8-1.3-3-3-3.5-5 1 0 1.8-.2 2.5-1a22.4 22.4 0 0 1 2.5 8c6 .8 11-.5 15.5-4 2.3.5 2.8 1.7 1.5 3.5a27.9 27.9 0 0 0 11 1.5v4c1.6 0 3 .6 4 2a3.6 3.6 0 0 0 1.5-1c2.5 3.8 6 6 10.5 6.5-1 .3-1.6.8-2 1.5z"/><path style="opacity:1" fill="#465453" d="M778.5 430.5c.1 9.7.5 19.3 1 29a85.8 85.8 0 0 1-1-29z"/><path style="opacity:1" fill="#fcf7da" d="M711.5 420.5a8.4 8.4 0 0 1 4 .5 98.6 98.6 0 0 0-2 8l4 5c-1.4 2-2.2 4-2.5 6.5l-1-1c-2.4 1.3-5 2-8 2-6.4 1.4-10.5-1-12.5-7 2-1 3.8-2.3 5-4l2-2 11-8z"/><path style="opacity:1" fill="#f8f6da" d="M330.5 423.5a263.3 263.3 0 0 1 22 5.5 17.4 17.4 0 0 1 10.5 17.5 189.2 189.2 0 0 0-15.5 25 22.8 22.8 0 0 0-4 5c-2.2.4-3.5 1.7-4 4-2-1.5-2.4-3.5-1.5-6a68 68 0 0 1 5.5-8.5c-1-.7-1.1-1.6-.5-2.5 2.6-1.7 5.1-3 7.5-3.5l-2-2a30 30 0 0 1 5-7.5c2.1-8.5-.2-14.7-7-18.5a2036.8 2036.8 0 0 1-38-3.5 27.7 27.7 0 0 1-10.5 3c-3.2-1.5-5-.5-5.5 3a3 3 0 0 1-3-1c1.4-1.2 1.2-1.9-.5-2a19.4 19.4 0 0 0-12 8 4.5 4.5 0 0 0-1.5-2c-1 1.1-1.8 1.1-2.5 0l-3.5 5-3-2a17.8 17.8 0 0 1-9 5l-1 6c-2 0-3.6-1-4.5-3a8.4 8.4 0 0 0-.5 4c-3.3 2-7 3.1-11 3.5-1 2-1.3 4.2-1 6.5a23.1 23.1 0 0 1-8-2 114.7 114.7 0 0 1 61-36 610.3 610.3 0 0 1 38-1z"/><path style="opacity:1" fill="#bab7aa" d="M330.5 423.5a610.3 610.3 0 0 0-38 1 124.7 124.7 0 0 1 38-1z"/><path style="opacity:1" fill="#363842" d="M950.5 422.5c-17.7-.2-35.3 0-53 .5a42.5 42.5 0 0 1-5 1.5 5 5 0 0 1 4-2.5c18.2-.8 36.2-.7 54 .5z"/><path style="opacity:1" fill="#62625a" d="M483.5 413.5c1.4 2 2 4.3 2 7-1.4-2-2-4.3-2-7z"/><path style="opacity:1" fill="#141926" d="M397.5 409.5c-.1 4.1-2.1 7-6 8.5 1 1.2 2.4 1.7 4 1.5-.2 4.3-2 5-5 2-1.5 3-3.8 5-7 6-2.4-.5-3-1.7-2-3.5-5-.8-8.6-3.3-11-7.5 3.6 2.5 7.6 3.8 12 4a3 3 0 0 0-1-3 132.2 132.2 0 0 0-24-11.5 908.5 908.5 0 0 0-33-5.5 1336.8 1336.8 0 0 1-28-2.5l-4-1a13 13 0 0 0 5-1.5c32.9-3.4 63.6 3.2 92 20a34.8 34.8 0 0 0 8-6z"/><path style="opacity:1" fill="#313e3e" d="M717.5 401.5a40.4 40.4 0 0 1-13 13c4-4.7 8.3-9 13-13z"/><path style="opacity:1" fill="#21252e" d="M297.5 395.5a13 13 0 0 1-5 1.5l4 1c9.5 1 18.8 1.8 28 2.5a134.8 134.8 0 0 0-90 22.5c-.8 1-1.2 2.2-1 3.5a13 13 0 0 0 5-.5c2.5-2.5 5.5-4 9-4.5v3c-3-.4-4 .6-3 3a9.9 9.9 0 0 0-2.5 5 7.9 7.9 0 0 1-2-4c-1.1 1.2-2.3 1.2-3.5 0a29 29 0 0 1-4 5v-4c-2.7-.2-5 .6-7 2.5a93.5 93.5 0 0 0-17 19.5 81.3 81.3 0 0 1-2.5-3c-.7.8-1.5 1-2.5 1a134.8 134.8 0 0 1 94-54z"/><path style="opacity:1" fill="#ececd8" d="M324.5 400.5a908.5 908.5 0 0 1 33 5.5 132.2 132.2 0 0 1 24 11.5 3 3 0 0 1 1 3c-4.4-.2-8.4-1.5-12-4a16.3 16.3 0 0 0-5-2 56.2 56.2 0 0 0-20-6 126.5 126.5 0 0 1-9-2l-12-2c-4-.7-8.2-1-12.5-1-6.7-.1-13.2.5-19.5 2a94.5 94.5 0 0 0-33 10 50.5 50.5 0 0 0-12 6c-3.5.5-6.5 2-9 4.5a13 13 0 0 1-5 .5c-.2-1.3.2-2.5 1-3.5a134.8 134.8 0 0 1 90-22.5z"/><path style="opacity:1" fill="#232527" d="M345.5 408.5c7.1.8 13.8 2.8 20 6a49.5 49.5 0 0 0-13-2.5 53.4 53.4 0 0 1-7-3.5z"/><path style="opacity:1" fill="#232732" d="m324.5 404.5 12 2c-15.4-.3-30.7.2-46 1.5 1.3.7 1.3 1.3 0 2-4-.7-6.3 1.2-7 5.5-1.2-1.2-1.2-2.3 0-3.5a5.7 5.7 0 0 0-6-1c1.2.7 1.2 1.2 0 1.5-5.2-2-9.4-.6-12.5 4a9 9 0 0 0-5.5-1 94.5 94.5 0 0 1 33-10 385 385 0 0 1 32-1z"/><path style="opacity:1" fill="#c2c4b3" d="M324.5 404.5a385 385 0 0 0-32 1 77.2 77.2 0 0 1 19.5-2c4.3 0 8.5.3 12.5 1z"/><path style="opacity:1" fill="#c1c1b4" d="m61.5 385.5-3 12-2 1 1-4a38.6 38.6 0 0 1 4-9z"/><path style="opacity:1" fill="#363a3b" d="M749.5 367.5c.7.4 1.2 1 1.5 2 .3 5 .8 10 1.5 15 .3 10.5 0 20.8-1 31a412.6 412.6 0 0 0-2-48z"/><path style="opacity:1" fill="#697574" d="M519.5 376.5c1.1 1.1 1.3 2.4.5 4a75.6 75.6 0 0 0-8 9 8.4 8.4 0 0 0-.5 4h-3a57.4 57.4 0 0 1 10.5-14 5 5 0 0 0 .5-3z"/><path style="opacity:1" fill="#0e1627" d="M741.5 371.5a108 108 0 0 1 .5 25 316.8 316.8 0 0 0-6 19 222.9 222.9 0 0 0-11.5 23c-1.5.5-2.9-.1-4-2a9.1 9.1 0 0 0 1-5 50.5 50.5 0 0 0-.5-10c-3-3.6-6-3.9-9.5-1a3451.6 3451.6 0 0 0-11 8 13 13 0 0 1-1.5-9 15.3 15.3 0 0 1 4.5-1.5c.8-1 1.2-2.2 1-3.5 5.3-3.3 9.7-7.7 13-13a466.3 466.3 0 0 1 15.5-22c.5-5.4 3.3-8 8.5-8z"/><path style="opacity:1" fill="#141921" d="M24.5 544.5a514 514 0 0 0 3 116c-.2 5.6.4 11 2 16a606.5 606.5 0 0 0 9 48c-1.6-.6-3-1.6-4-3 1.2-5 .3-9.6-2.5-14a574.5 574.5 0 0 1-7-52 4.6 4.6 0 0 0-4.5-2 56 56 0 0 0-1-32 1251.4 1251.4 0 0 0 1.5-49c.4-9.7 1.6-19 3.5-28z"/><path style="opacity:1" fill="#9f9f90" d="M261.5 714.5c2.7.4 5 1.4 7 3-2.8 0-5.2-1-7-3z"/><path style="opacity:1" fill="#a1a19e" d="M361.5 716.5a8.9 8.9 0 0 1-6 3 8.9 8.9 0 0 1 6-3z"/><path style="opacity:1" fill="#a0a294" d="M283.5 721.5c2.7 0 5 .6 7 2-2.7 0-5-.6-7-2z"/><path style="opacity:1" fill="#111a23" d="M830.5 691.5a109.7 109.7 0 0 1-4.5 14l-1 1a5 5 0 0 1-.5-3c-4 .7-6.3 3-7 7a5 5 0 0 1 3 .5c1.3.7 1.3 1.3 0 2-2 .3-4 .3-6 0a88.7 88.7 0 0 1-33 28.5 659.4 659.4 0 0 0 30.5-28 608.6 608.6 0 0 1 18.5-22z"/><path style="opacity:1" fill="#0f1823" d="M772.5 748.5a6.9 6.9 0 0 1-3 4.5c-2.9.9-5.2 2.5-7 5-4.3.3-7.7 2.3-10 6l2 1c-2.5 2-2.5 4 0 6-5.2-1-10.5-1.6-16-1.5a6.8 6.8 0 0 1-1 4c-4.8.3-9 2-12.5 5a18.5 18.5 0 0 0-.5 6c-3.5.5-6.7-.2-9.5-2a75 75 0 0 0-11.5 2.5c-14.4.2-28.7.7-43 1.5-41.3-1.2-82.3-1.2-123 0l-35-2c-5.8-1.4-11.1-4-16-7.5-7.1-1-13.4-3.7-19-8a40.2 40.2 0 0 1-11-2l2-2a4 4 0 0 1-2-3.5 610.8 610.8 0 0 0 44 20c.8.8 1.8 1.3 3 1.5 66.8.8 133.5.7 200-.5a870 870 0 0 1 29-11.5 1568 1568 0 0 0 40-22.5z"/><path style="opacity:1" fill="#101823" d="M38.5 725.5a1722.3 1722.3 0 0 0 16.5 55 8796 8796 0 0 1 7.5 17 323.6 323.6 0 0 1 7 19c-.9-1.1-1.7-1.1-2.5 0a10 10 0 0 0-4-9 42.4 42.4 0 0 0-4-12 22.5 22.5 0 0 1-9.5-15 4 4 0 0 1 2-3.5 5 5 0 0 0-3-.5c.5-4.1.5-8.1 0-12-1.3.2-2.5-.2-3.5-1l-1-12c-1.1-1.9-2.4-2.6-4-2 0-2.5-.9-4.7-2.5-6.5.7-5.6 1-11.4 1-17.5z"/><path style="opacity:1" fill="#313c3d" d="M500.5 781.5c67.6 1 135.3 1.3 203 1a6674.3 6674.3 0 0 1-200 .5 5.5 5.5 0 0 1-3-1.5z"/><path style="opacity:1" fill="#081226" d="M540.5 799.5c-13.3.2-26.7 0-40-.5 1.9-.2 3.6-.9 5-2a4.5 4.5 0 0 1 0-5.5c4.8 1.2 5.1 3 1 5.5 1.6.3 3.1.8 4.5 1.5a32.4 32.4 0 0 0 2.5-6 117.6 117.6 0 0 0 10.5-4 181.3 181.3 0 0 0 45.5 2.5 3.6 3.6 0 0 0 1-1.5l6-1c9 1.6 18.2 2.2 27.5 2a481.8 481.8 0 0 1 47.5-2v3a41.7 41.7 0 0 1 9 1v5a1205.3 1205.3 0 0 1-97.5 0 305.8 305.8 0 0 0-22.5 2z"/><path style="opacity:1" fill="#6c675f" d="M491.5 799.5c74 1 148 1.3 222 1a7998.9 7998.9 0 0 1-219 .5 5.5 5.5 0 0 1-3-1.5z"/><path style="opacity:1" fill="#3f4341" d="M1118.5 800.5h1v2c-.8 3-2.2 5.7-4 8a30.2 30.2 0 0 1 3-10z"/><path style="opacity:1" fill="#a19d93" d="M255.5 863.5a784.7 784.7 0 0 1 56 1c-18.7-.3-37.4 0-56 1v-2z"/><path style="opacity:1" fill="#282a2b" d="M643.5 878.5h-18c5.5-1 11.1-1.3 17-1v-12h-54v8a45.9 45.9 0 0 1 15 1.5c.8.7 1 1.5 1 2.5h-1c0-.7-.3-1-1-1a128.3 128.3 0 0 0-12-1c-1.4-1-3-1.3-5-1l2-10h56v14z"/><path style="opacity:1" fill="#d0cdbf" d="M698.5 864.5c7.5-1 15.1-1.3 23-1a13 13 0 0 0 5 1.5c.8 1 1.2 2.2 1 3.5l-7-3.5a242.4 242.4 0 0 0-22-.5z"/><path style="opacity:1" fill="#2a2c2f" d="M900.5 864.5c2.5.8 4.9 1.8 7 3a277.3 277.3 0 0 0-43-2h-5v22c-1-7.5-1.3-15.1-1-23h42z"/><path style="opacity:1" fill="#eeedd7" d="M900.5 864.5h-42c-.3 7.9 0 15.5 1 23a4463.1 4463.1 0 0 0 4 125.5 2024.8 2024.8 0 0 0-1 33.5 385.7 385.7 0 0 0 48 .5c.6-.4.9-.9 1-1.5h2c-1.7 2.3-4 3.8-7 4.5l-16.5.5c-8-.5-15.7-.5-23 0-3.3-1.7-6.8-3-10.5-4l1-2a7.3 7.3 0 0 1-2-3.5 134.4 134.4 0 0 0 3-25c-.7-8.6 0-17 2-25.5h-3v-7h-3c.2-8.4 1.2-16.5 3-24.5a83.1 83.1 0 0 0-4-22 916.1 916.1 0 0 0 1-39c-.8-9.8-1.5-19.7-2-29.5 3.3.2 3.6-.5 1-2a7.8 7.8 0 0 1 3.5-5 595.7 595.7 0 0 1 43.5 3z"/><path style="opacity:1" fill="#071427" d="M601.5 865.5c2.8.8 5.8 1.5 9 2a425.2 425.2 0 0 0 28.5-1 4 4 0 0 1 2 1c.5 3 .7 6 .5 9a83.5 83.5 0 0 0-21 1.5c1 3.1.9 6.3-.5 9.5a753.4 753.4 0 0 1-1.5 33c.3 6 1.3 11.2 3 15.5a66.8 66.8 0 0 0-.5 37.5c.7 21.3.7 42.7 0 64a48 48 0 0 1-13.5 1 45 45 0 0 1 3.5-15l1-19c2.1-1.8 3-4.1 2.5-7h-3a16 16 0 0 1 3-10.5 16 16 0 0 1-3-10.5h3c.4-2.9-.4-5.2-2.5-7a930 930 0 0 1 0-61 3.6 3.6 0 0 1 1.5-1 60.7 60.7 0 0 0 .5-19c-2.1-2.6-4.3-2.6-6.5 0-.8-1.9-1.8-3.5-3-5v-6c0-1-.2-1.8-1-2.5a45.9 45.9 0 0 0-15-1.5v-8h13z"/><path style="opacity:1" fill="#091224" d="M368.5 878.5a428.9 428.9 0 0 0-1 29.5c0 10.2.7 20 2 29.5a272 272 0 0 0 30 5v12h-22c-4.5-1-9.1-1.3-14-1v74c2.8 1 5.8 1.3 9 1 8.4-.4 16.7.1 25 1.5a55.2 55.2 0 0 1 1 14.5c-16.7 0-33.3.3-50 1-1.2-60-1.2-120 0-180h50v12c-10.2-.3-20.2 0-30 1z"/><path style="opacity:1" fill="#fdfce3" d="M255.5 863.5v2a54.9 54.9 0 0 1-2 7 3.6 3.6 0 0 0 1 1.5 185.7 185.7 0 0 0 16 2.5 6808.3 6808.3 0 0 1-1 165 32.2 32.2 0 0 1-3.5-7 683.4 683.4 0 0 0-1.5-31h-3c-.7-2-1-4.1-1-6.5a104.5 104.5 0 0 0 1-27 185.4 185.4 0 0 0 2-27c.2-6.2-.4-12.2-2-18a37.8 37.8 0 0 0-1-21 36.4 36.4 0 0 1 2-6 9.7 9.7 0 0 1 0-7 66.7 66.7 0 0 0-3.5-12.5c-3.1-.9-5.8-2.6-8-5-3-5.5-1.5-8.8 4.5-10z"/><path style="opacity:1" fill="#fdfde7" d="M590.5 875.5c4 .1 8 .5 12 1 .3 55 0 110-1 165-.8-4.5-1.8-9.1-3-14V902c0-3.5-.6-6.8-2-10 2.2-2.6 2.6-5.4 1-8.5a66.7 66.7 0 0 1 2-5.5 547.5 547.5 0 0 1-9-2.5z"/><path style="opacity:1" fill="#5b5a53" d="M399.5 864.5c1 4.8 1.3 9.8 1 15h-21v-1h20v-14z"/><path style="opacity:1" fill="#232427" d="M311.5 864.5v14h-19v163h-21a6808.3 6808.3 0 0 0-1-165 185.7 185.7 0 0 1-16-2.5 3.6 3.6 0 0 1-1-1.5 54.9 54.9 0 0 0 2-7 799.4 799.4 0 0 1 56-1z"/><path style="opacity:1" fill="#061124" d="M292.5 878.5a6562.8 6562.8 0 0 0-1 162h-16c-1.2-1.4-.9-2.5 1-3.5-.6-7.8-1-16-1-24.5a5304.3 5304.3 0 0 0 2-46.5 274.5 274.5 0 0 0-2-29.5c.2-2.6 1-5 2.5-7l.5-7.5a826.8 826.8 0 0 1-5-42.5l-1-6h-17c.3-2.8 1.3-5.3 3-7.5a1351.5 1351.5 0 0 1 52-.5v12c-6.2-.3-12.2 0-18 1z"/><path style="opacity:1" fill="#0f1622" d="M80.5 840.5a777 777 0 0 0 57 94c-1 0-1.8.2-2.5 1a20.6 20.6 0 0 0-2-6c-6.7-1.7-9.7-6-9-13a36.4 36.4 0 0 0-8.5-5.5 4 4 0 0 0 1-2 20.4 20.4 0 0 0-3.5-6.5 7.9 7.9 0 0 0-2 4l-3-2c-.5-3.2-.3-6 .5-8.5a31.2 31.2 0 0 0-6-4.5c-.4-3.9-2.2-6.9-5.5-9l-3-11c-1.3-2.4-2.3-2.4-3 0a344 344 0 0 0-5-5 8 8 0 0 1 1.5-7.5 13 13 0 0 1-1-5.5c-3.2.3-4.2-.9-3-3.5-2.1-2.8-3.1-6-3-9.5z"/><path style="opacity:1" fill="#76766a" d="M446.5 878.5a224.8 224.8 0 0 1-1 18h-1c.2-6.2.8-12.2 2-18z"/><path style="opacity:1" fill="#081326" d="M820.5 1032.5v13a50 50 0 0 1-10-.5 45.3 45.3 0 0 1-3.5-11.5 698.7 698.7 0 0 0-1.5-35c1.1-2.9.6-5.6-1.5-8a113.2 113.2 0 0 0-2-14c-.4-.6-.9-.9-1.5-1h-1c-4.8-1-9.8-1.3-15-1a112 112 0 0 0-1 19l-2 1a134.2 134.2 0 0 1-6 30l-2.5-6-1.5 26c-1.7-1.3-3.3-1.3-5 0a89.7 89.7 0 0 1 3-38c-.4-.8-.8-1.6-1-2.5a1163 1163 0 0 1 5-47 246.1 246.1 0 0 1 1.5-56.5c.5-11.7.7-23.3.5-35h44a6974.5 6974.5 0 0 0 1 167z"/><path style="opacity:1" fill="#010c1a" d="M273.5 879.5a826.8 826.8 0 0 0 5 42.5l-.5 7.5c-1.5 2-2.3 4.4-2.5 7a274.5 274.5 0 0 1 2 29.5 5304.3 5304.3 0 0 1-2 46.5c0 8.5.4 16.7 1 24.5-1.9 1-2.2 2.1-1 3.5h-3a6482 6482 0 0 1 1-161z"/><path style="opacity:1" fill="#c0bfb6" d="M368.5 878.5h11v1h-11a856.9 856.9 0 0 0 1 58 212 212 0 0 1-2-29.5c0-10 .3-19.8 1-29.5z"/><path style="opacity:1" fill="#12171e" d="M1084.5 873.5c0 2.4-.5 4.8-1.5 7a27.6 27.6 0 0 0-3.5 6c.3 1.1 1 2 2 2.5-6.7 2.9-9.4 8-8 15.5-2 0-4 .6-5.5 2-.5 3-.7 6-.5 9-2 .3-3.5-.4-4.5-2a103.4 103.4 0 0 0-4.5 10c-3.9 1.4-7 3.7-9.5 7a16.6 16.6 0 0 1-11.5 15.5 87.3 87.3 0 0 0-4 6.5 16.1 16.1 0 0 1-5 2 834.8 834.8 0 0 0 56-81z"/><path style="opacity:1" fill="#1c2225" d="M698.5 864.5c7.3-.2 14.7 0 22 .5l7 3.5v1c-.6.1-1.1.4-1.5 1a5 5 0 0 0-3.5-2.5 87.6 87.6 0 0 0-43.5 3.5 946.3 946.3 0 0 0 .5 93.5 697.6 697.6 0 0 0 0 74.5 8.9 8.9 0 0 1 3 4.5c1.6.2 2.9.7 4 1.5h-4a25.5 25.5 0 0 1-6-6 4800.8 4800.8 0 0 1-.5-169c1.8-1.8 4-3 6.5-3.5a47.4 47.4 0 0 1 16-2.5z"/><path style="opacity:1" fill="#f8f6dd" d="M1118.5 800.5a30.2 30.2 0 0 0-3 10 1656.9 1656.9 0 0 1-31 63 834.8 834.8 0 0 1-56 81c-.7 0-1 .3-1 1a952.2 952.2 0 0 1-39 42 611.2 611.2 0 0 1-55 47c-.1-.6-.4-1.1-1-1.5a35 35 0 0 1 8-6l-1-1a19.6 19.6 0 0 1 13-14 325 325 0 0 1 16-10l1-1-4-1c2.6-2 4.6-4.5 6-7.5 1.2-1.2 2.3-1.2 3.5 0a15 15 0 0 1 10.5-8.5 26.7 26.7 0 0 0 1.5-6.5 154.7 154.7 0 0 0 15.5-13c.5-4.2 2.8-6.7 7-7.5 1.4-3.1 3.6-5.6 6.5-7.5-.3-3.4 1.2-5 4.5-5a5 5 0 0 1 .5-3c5-3.2 8.4-7.5 10.5-13a3 3 0 0 1 3-1c-.2-2 .1-4 1-6l-2-2c1.4-1 2.5-.8 3.5 1 3.6-3.7 6-8 7.5-13a45 45 0 0 0 11.5-8c1.4-4.5 3.2-9.2 5.5-14 3.7-3.2 6.3-7 8-11.5a3.6 3.6 0 0 1-1-1.5c2.5-1 3.1-2.4 2-4.5 1.4-.4 2.7-.9 4-1.5 2.7-4.9 5.2-9.9 7.5-15a13.9 13.9 0 0 1 4-3c-.4-2.6 0-5.3 1-8a67.7 67.7 0 0 0 8.5-13l-1-2a24.5 24.5 0 0 1 5-5.5c-1-2.7-.1-4.9 2.5-6.5a15 15 0 0 1 1.5-4.5l-1-1a73.8 73.8 0 0 0 11.5-25.5 7.2 7.2 0 0 1 2.5-2c1 1.4 2.4 2 4 2a23 23 0 0 0-2 8z"/><path style="opacity:1" fill="#40403b" d="M345.5 864.5a4585.7 4585.7 0 0 1 0 182 4142 4142 0 0 1 0-182z"/><path style="opacity:1" fill="#98978b" d="M625.5 878.5h18c-5.8 1-11.8 1.3-18 1a6562.8 6562.8 0 0 1-1 162v-1a6562.8 6562.8 0 0 1 1-162z"/><path style="opacity:1" fill="#1d1f27" d="M908.5 867.5a38 38 0 0 1 11.5 6c.7 53.3.7 106.7 0 160-.6 4.6-2.8 8.3-6.5 11 0-2.9.9-5.6 2.5-8 .2-9.9.7-19.7 1.5-29.5a106.4 106.4 0 0 1 0-28 322.7 322.7 0 0 0-3-35.5 81.8 81.8 0 0 1 3-17.5 35 35 0 0 1-2-13.5c-.2-5.1.5-10.1 2-15a133.9 133.9 0 0 1-2.5-24 998.5 998.5 0 0 0-6.5-6z"/><path style="opacity:1" fill="#3b3e3d" d="M444.5 896.5h1c.3 10.9-.4 21.5-2 32l1-32z"/><path style="opacity:1" fill="#faf8de" d="M721.5 863.5c-7.9-.3-15.5 0-23 1a47.4 47.4 0 0 0-16 2.5c-2.5.5-4.7 1.7-6.5 3.5a4800.8 4800.8 0 0 0 .5 169c-.5 1.2-1.5 1.9-3 2l-3-.5c-3.9-6.1-5.6-13-5-20.5.2-4.5.6-9 1-13.5a91.8 91.8 0 0 0-2-11.5 839.8 839.8 0 0 0 2-16.5 224.4 224.4 0 0 1-1.5-44.5 52 52 0 0 0 2.5-13.5 305 305 0 0 1-.5-38.5c.1-2.3 1.3-3.8 3.5-4.5a3.6 3.6 0 0 1-1-1.5 12.4 12.4 0 0 1 4-2.5 5 5 0 0 1-1-2.5 12 12 0 0 0 2-7c2-.7 4-.7 6 0a11.4 11.4 0 0 0 2-2.5 56.7 56.7 0 0 0 6.5-1.5c11.7-1.3 23.6-1.3 35.5 0v3h-3z"/><path style="opacity:1" fill="#af9c8b" d="M292.5 878.5h19c-5.8 1-11.8 1.3-18 1a6562.8 6562.8 0 0 1-1 162v-163z"/><path style="opacity:1" fill="#737468" d="M729.5 873.5c.7 7.3 1 14.8 1 22.5a26692.2 26692.2 0 0 1-2 142.5v-27c0-46 .3-92 1-138z"/><path style="opacity:1" fill="#0a1321" d="M601.5 865.5h41v12c-5.9-.3-11.5 0-17 1a6562.8 6562.8 0 0 0-1 162h-20v-157c1.2 1.5 2.2 3.1 3 5 2.2-2.6 4.4-2.6 6.5 0a60.7 60.7 0 0 1-.5 19 3.6 3.6 0 0 0-1.5 1 930 930 0 0 0 0 61c2.1 1.8 3 4.1 2.5 7h-3a16 16 0 0 0 3 10.5 16 16 0 0 0-3 10.5h3c.4 2.9-.4 5.2-2.5 7l-1 19a45 45 0 0 0-3.5 15c4.6.3 9.1 0 13.5-1 .7-21.3.7-42.7 0-64a66.8 66.8 0 0 1 .5-37.5 51.5 51.5 0 0 1-3-15.5 753.4 753.4 0 0 0 1.5-33c1.4-3.2 1.5-6.4.5-9.5a83.5 83.5 0 0 1 21-1.5 41 41 0 0 0-.5-9 4 4 0 0 0-2-1 425.2 425.2 0 0 1-28.5 1c-3.2-.5-6.2-1.2-9-2z"/><path style="opacity:1" fill="#938d81" d="M399.5 942.5c1 4.1 1.3 8.5 1 13-3.5.3-6.9 0-10-1h9v-12z"/><path style="opacity:1" fill="#edead6" d="M448.5 1038.5c1.4-9.3 2.8-18.6 4-28a270.6 270.6 0 0 0 4-16c2-5.7 3-11.7 3-18h12c.3 2.9 1 5.5 2 8-.2 1 .2 1.7 1 2l1 22c0 5.2.6 10.2 2 15v8c-.2 5.3.5 10.3 2 15h14v-182c1.2-1.2 2.4-1.2 3.5 0a649.5 649.5 0 0 1 1.5 16c0 3.7-.6 7.2-2 10.5a11.8 11.8 0 0 0 3 6.5l1 32.5a363.7 363.7 0 0 1-2 36l2 7a162.3 162.3 0 0 0-1.5 38.5 4.5 4.5 0 0 1 1.5 2c-1.3 11.8-3 23.5-5 35-6 .2-12 0-18-.5l-4-2a8 8 0 0 0 1-3.5l-2-7c1.5-3.3 2.5-6.8 3-10.5a285.3 285.3 0 0 0-6-26c-.6-2.8 0-5.5 2-8-2.7-.5-4-2.2-4-5a61.7 61.7 0 0 0 1-8.5h-3a9.9 9.9 0 0 1-1 6 6.8 6.8 0 0 0-4-1 372.2 372.2 0 0 0-2.5 29l-3 5c-1.4 7.7-3.5 15-6.5 22z"/><path style="opacity:1" fill="#091426" d="M493.5 865.5v2a7924.2 7924.2 0 0 0-1 178h-13c0-4.9-.7-9.6-2-14v-8c.2-5.3-.5-10.3-2-15l-1-22v-12c-5.2-.3-10.2 0-15 1a103 103 0 0 0-3 19 270.6 270.6 0 0 1-4 16c-2 6-3.5 12.4-4.5 19l-1.5 15c-2.3.3-4.5 0-6.5-1a59 59 0 0 1-1.5-9.5c.7-11.5 1.6-23 2.5-34.5l2-2a529.7 529.7 0 0 1 1-44l2-2a42.4 42.4 0 0 1 1.5-8.5l-2-8c1.2-3.6 1.2-7.7 0-12a319.5 319.5 0 0 1 3-30.5 42.3 42.3 0 0 1-.5-15 9 9 0 0 0 2.5-11 463 463 0 0 1 43-1z"/><path style="opacity:1" fill="#333835" d="M477.5 872.5c1.3 14.8 2 30 2 45.5l-.5 45.5c-4 1.3-7.8 1.3-11.5 0h10v-91z"/><path style="opacity:1" fill="#f7f5e3" d="M477.5 872.5v91h-14v-91h14z"/><path style="opacity:1" fill="#fefadd" d="M467.5 873.5c2.7-.3 5.4 0 8 1a66.6 66.6 0 0 1-3 10 4861.5 4861.5 0 0 0 4 63.5l-1 13.5a13.7 13.7 0 0 1-10 0c-.1-25.6 0-51.2.5-77 .2-3.8.7-7.4 1.5-11z"/><path style="opacity:1" fill="#161a21" d="M774.5 864.5h46v168a6974.5 6974.5 0 0 1-1-167h-44c.2 11.7 0 23.3-.5 35a246.1 246.1 0 0 0-1.5 56.5 1163 1163 0 0 0-5 47c.2.9.6 1.7 1 2.5a89.7 89.7 0 0 0-3 38c1.7-1.3 3.3-1.3 5 0l1.5-26 2.5 6a134.2 134.2 0 0 0 6-30l2-1c-3 16-5.7 32-8 48-.8 1.1-1.5 2.5-2 4a25.8 25.8 0 0 1-10 1c-.2-8.7.1-17.4 1-26 1-3.2 1.8-6.5 2.5-10 .5-11.3.7-22.7.5-34a3650.1 3650.1 0 0 1 7-112z"/><path style="opacity:1" fill="#21262d" d="M791.5 872.5v91c4.6.3 9.1 0 13.5-1 .5-29 .7-58 .5-87a856 856 0 0 1 2.5 89 79.6 79.6 0 0 1-18.5 1.5c-2.3-1.1-2.6-2.6-1-4.5-.3-1.1-1-2-2-2.5 1.7-3.2 2.5-6.7 2.5-10.5a462.3 462.3 0 0 0 0-43 99.2 99.2 0 0 1-2-31 4.6 4.6 0 0 1 4.5-2z"/><path style="opacity:1" fill="#f6f3d8" d="M791.5 872.5h14v3c.2 29 0 58-.5 87a48 48 0 0 1-13.5 1v-91z"/><path style="opacity:1" fill="#d1d2c4" d="M459.5 975.5h14v9c-1-2.5-1.7-5.1-2-8h-12c0 6.3-1 12.3-3 18a103 103 0 0 1 3-19z"/><path style="opacity:1" fill="#343c3c" d="M603.5 877.5h1v163h20v1h-21v-164z"/><path style="opacity:1" fill="#0f141f" d="M1027.5 955.5c-2 4.5-4.7 8.7-8 12.5 1.6-.6 3-.3 4 1-2 3.2-4.7 5.7-8 7.5-.8 1.6-1.3 3.2-1.5 5a11.3 11.3 0 0 1-3.5 1.5l-8.5 9.5c-3-.4-5.2 1.1-6.5 4.5a25 25 0 0 1-7 .5 952.2 952.2 0 0 0 39-42z"/><path style="opacity:1" fill="#3c3e40" d="M459.5 975.5c4.8-1 9.8-1.3 15-1v12c-.8-.3-1.2-1-1-2v-9h-14z"/><path style="opacity:1" fill="#363938" d="M799.5 975.5h-14c0 6.2-.7 12.2-2 18a112 112 0 0 1 1-19c5.2-.3 10.2 0 15 1z"/><path style="opacity:1" fill="#14171d" d="M800.5 975.5c.6.1 1.1.4 1.5 1 1 4.6 1.6 9.3 2 14a7.4 7.4 0 0 1 1.5 8 698.7 698.7 0 0 1 1.5 35 45.3 45.3 0 0 0 3.5 11.5c3.3.5 6.7.7 10 .5v1h-14a183.4 183.4 0 0 0-2-19c-.3-10.9-1.3-21.5-3-32a553.6 553.6 0 0 0-1-20z"/><path style="opacity:1" fill="#dedeca" d="M377.5 954.5h-13v72h7c-2.4 1-5.1 1.3-8 1v-74c4.9-.3 9.5 0 14 1z"/><path style="opacity:1" fill="#2e322e" d="M767.5 976.5c.2 11.3 0 22.7-.5 34a136 136 0 0 1-2.5 10l3-44z"/><path style="opacity:1" fill="#0f121b" d="M345.5 864.5h54v14h-31c9.8-1 19.8-1.3 30-1v-12h-50c-1.2 60-1.2 120 0 180 16.7-.7 33.3-1 50-1 .3-5 0-9.8-1-14.5a120.1 120.1 0 0 0-25-1.5l22-2h5v20h-54a4585.7 4585.7 0 0 0 0-182z"/><path style="opacity:1" fill="#c4c4af" d="M821.5 864.5a8376 8376 0 0 1 1 183c-5.5.3-10.9 0-16-1h14a8284.6 8284.6 0 0 0 1-182z"/><path style="opacity:1" fill="#17191f" d="M864.5 865.5c-1.2 1-2 2.4-2.5 4a5255.3 5255.3 0 0 0 3.5 150c-.6 7.7-.7 15.3-.5 23a9.4 9.4 0 0 0 1.5 2.5c14.3.5 28.7.7 43 .5-15.5 1-31.2 1.3-47 1 .2-11.2.6-22.3 1-33.5a4463.1 4463.1 0 0 1-4-125.5v-22h5z"/><path style="opacity:1" fill="#191a1f" d="M493.5 867.5v179h-14v-1h13a7924.2 7924.2 0 0 1 1-178z"/><path style="opacity:1" fill="#575954" d="M774.5 864.5a276.7 276.7 0 0 1 47 0 8284.6 8284.6 0 0 1-1 182v-182h-46z"/><path style="opacity:1" fill="#181b20" d="M493.5 864.5v1a463 463 0 0 0-43 1 9 9 0 0 1-2.5 11 42.3 42.3 0 0 0 .5 15 319.5 319.5 0 0 0-3 30.5c1.2 4.3 1.2 8.3 0 12l2 8a42.4 42.4 0 0 0-1.5 8.5l-2 2a529.7 529.7 0 0 0-1 44l-2 2c-1 11.5-1.8 23-2.5 34.5a59 59 0 0 0 1.5 9.5c2 1 4.2 1.3 6.5 1l1.5-15c1-6.6 2.5-13 4.5-19-1.2 9.3-2.6 18.7-4 28v1c-1 2.1-1.3 4.4-1 7h-11v-11a2884.8 2884.8 0 0 1 7-107c1.6-10.5 2.3-21.1 2-32 .6-6 1-12 1-18v-14h47z"/><path style="opacity:1" fill="#cbc9be" d="M801.5 995.5c1.7 10.5 2.7 21.1 3 32-2.4-10.4-3.4-21-3-32z"/><path style="opacity:1" fill="#7e817d" d="M475.5 1008.5c1.5 4.8 2.2 9.8 2 15-1.4-4.8-2-9.8-2-15z"/><path style="opacity:1" fill="#061226" d="M864.5 865.5a277.3 277.3 0 0 1 43 2h1a998.5 998.5 0 0 1 6.5 6c.1 8 1 16 2.5 24a45.7 45.7 0 0 0-2 15 35 35 0 0 0 2 13.5 81.8 81.8 0 0 0-3 17.5 322.7 322.7 0 0 1 3 35.5 106.4 106.4 0 0 0 0 28 534.9 534.9 0 0 0-1.5 29.5 14.8 14.8 0 0 0-2.5 8v1h-4a920 920 0 0 1-43-.5 9.4 9.4 0 0 1-1.5-2.5c-.2-7.7 0-15.3.5-23a5255.3 5255.3 0 0 1-3.5-150c.5-1.6 1.3-3 2.5-4z"/><path style="opacity:1" fill="#98978f" d="M900.5 986.5c.4 11.9-.2 23.6-2 35 0-11.9.6-23.5 2-35z"/><path style="opacity:1" fill="#191b1e" d="M901.5 965.5a478 478 0 0 0 2 61.5l-6 1.5c-1.2.3-1.9 1-2 2a53.3 53.3 0 0 1-8.5 1c-2.6 0-4.8-.7-6.5-2 4.5.3 8.9 0 13-1 2.4-1.8 4-4.1 5-7 1.8-11.4 2.4-23.1 2-35-.3-7.2 0-14.2 1-21z"/><path style="opacity:1" fill="#06111f" d="M895.5 1030.5c.1-1 .8-1.8 2-2l6-1.5a478 478 0 0 1-2-61.5v-1a13 13 0 0 1 1.5 5l1-40c.8-16.5.7-32.8-.5-49-7.5-1-15.1-1.3-23-1a13 13 0 0 1 5-1.5c6.7-.5 13.3-.7 20-.5a1507.3 1507.3 0 0 0 1 71 631 631 0 0 0-3 32l.5 7c1.9-2.3 3-5 3.5-8a436 436 0 0 0 4 19.5 20.8 20.8 0 0 0 1 15.5 20.2 20.2 0 0 1-1.5 6c-1.7 1.4-3 1-4-1a10.6 10.6 0 0 1-2.5 3 13 13 0 0 1 3 4 17.7 17.7 0 0 1-4 6 14.8 14.8 0 0 1-3.5-3 6.5 6.5 0 0 1-4.5 1z"/><path style="opacity:1" fill="#282d2a" d="M880.5 880.5v148c-1.3-23.2-2-46.7-2-70.5l.5-70.5c.2-2.5.7-4.9 1.5-7z"/><path style="opacity:1" fill="#323633" d="M903.5 880.5c1.2 16.2 1.3 32.5.5 49l-1 40a13 13 0 0 0-1.5-5 1413.1 1413.1 0 0 0 2-84z"/><path style="opacity:1" fill="#dadabd" d="M880.5 879.5c7.9-.3 15.5 0 23 1h-22v148h12a43 43 0 0 1-13 1v-150z"/><path style="opacity:1" fill="#fcf7dd" d="M903.5 880.5c.2 28-.5 56-2 84v1c-1 6.8-1.3 13.8-1 21-1.4 11.5-2 23.1-2 35-1 2.9-2.6 5.2-5 7h-12v-148h22z"/><path style="opacity:1" fill="#545554" d="M371.5 1026.5h23l-22 2c-3.2.3-6.2 0-9-1 2.9.3 5.6 0 8-1z"/><path style="opacity:1" fill="#071325" d="M727.5 869.5c1.2 1 1.8 2.3 2 4a8045.8 8045.8 0 0 0-1 138c-1 11.2-1.3 22.5-1 34h-41a8.8 8.8 0 0 0-4-1.5 8.9 8.9 0 0 0-3-4.5 697.6 697.6 0 0 1 0-74.5 946.3 946.3 0 0 1-.5-93.5c14.1-4.8 28.6-6 43.5-3.5a5 5 0 0 1 3.5 2.5c.4-.6.9-.9 1.5-1z"/><path style="opacity:1" fill="#7c7d74" d="M691.5 984.5h1v46c1.3-.2 2.3.1 3 1h-4v-47z"/><path style="opacity:1" fill="#6d6f66" d="M713.5 881.5a2137.5 2137.5 0 0 1-1 148c.7-49.3 1-98.7 1-148z"/><path style="opacity:1" fill="#161920" d="m710.5 1032.5 2-3a2137.5 2137.5 0 0 0 1-148 111.4 111.4 0 0 1-14-1c-2.5-.2-4.7.5-6.5 2a5199.6 5199.6 0 0 0-.5 102h-1c.2-30.3 0-60.7-.5-91a102.6 102.6 0 0 0-1.5-13 289.8 289.8 0 0 1 24-1.5c.8-1.5 1.6-1.7 2.5-.5a86 86 0 0 1 1.5 17 547 547 0 0 0 0 41.5 4014.4 4014.4 0 0 1-3 95.5h-4z"/><path style="opacity:1" fill="#faf6dd" d="M713.5 881.5c0 49.3-.3 98.7-1 148l-2 3c-5-.4-10-.8-15-1-.7-.9-1.7-1.2-3-1v-46c-.2-34 0-68 .5-102 1.8-1.5 4-2.2 6.5-2 4.6.6 9.3 1 14 1z"/><path style="opacity:1" fill="#081221" d="M988.5 997.5c.9 4.3-.8 6.8-5 7.5a11.3 11.3 0 0 0-1.5 3.5c-3.2 1-3.7 2.3-1.5 4a6.9 6.9 0 0 0-1 4h-4c.4 2.8-.6 4.8-3 6a79.8 79.8 0 0 0-5 12c-3.1-.4-5.8-1.8-8-4a22.5 22.5 0 0 1-3 4 14.4 14.4 0 0 0-8 8.5 27 27 0 0 0-6.5 1.5c-.3 1.2.2 2.2 1.5 3a514.2 514.2 0 0 0-6 6 3.6 3.6 0 0 1-1.5-1 7 7 0 0 1-3.5 2.5c.5.4.8 1 1 1.5a13 13 0 0 0-6 6c-4.3-2.8-6.3-1.5-6 4 5.2-1 6.7.7 4.5 5-3 1-6.2 1.3-9.5 1a8.8 8.8 0 0 0-1.5-5 4.5 4.5 0 0 1-1.5 2c-1.8.2-3.6.2-5.5 0a9.4 9.4 0 0 1-1.5 2.5c1.1 1.8.4 2.6-2 2.5v3c-1.5-.3-2.8 0-4 1-2 3-4.7 5.3-8 7a4.5 4.5 0 0 1-1.5-2c-1 1.3-2 1.3-3 0a6.8 6.8 0 0 1-1.5 3c.2-2.1-1.2-3.1-4-3 0 2.5-1 4.5-3 6 .4.8.8 1.6 1 2.5-1 2-2.3 2.5-4 1.5-5.8 2.9-11 6.2-15.5 10a4.9 4.9 0 0 1-2.5-5 3 3 0 0 0-3 1c-.7 1.6-1 3.1-1 4.5-2.3.3-4.5 1.1-6.5 2.5a60.5 60.5 0 0 1-3.5 6.5c2 1 3 2.4 3 4.5a3 3 0 0 1-3-1 15.8 15.8 0 0 0-2-4 13.2 13.2 0 0 1-4.5 3 29 29 0 0 1-8 0 4.6 4.6 0 0 1-4.5 2c-.8 4.6-3 5.6-6.5 3l-3.5 4.5c-4.4.3-8.8 1.1-13 2.5a8 8 0 0 0-7-1.5c-1.9 1-2.2 2.4-1 4a35.4 35.4 0 0 0-14.5 8.5c-1.3-2.4-2.3-2.4-3 0-1.6-1-1.8-2.2-.5-3.5-2.4-2-4.8-1.8-7 .5a12.8 12.8 0 0 1-7.5 8c-6-2.6-12.2-3.3-18.5-2 4.4-1.6 9-2.4 14-2.5.8-1 1.2-2.2 1-3.5a54.3 54.3 0 0 0 16.5-4c2.5.8 5 1 7.5.5a162 162 0 0 0 13-8c3.3.5 6.6.2 10-1a45.8 45.8 0 0 1 6-7.5 556 556 0 0 0 122-71 611.2 611.2 0 0 0 55-47z"/><path style="opacity:1" fill="#909388" d="M477.5 1031.5c1.3 4.4 2 9.1 2 14v1a43.2 43.2 0 0 1-2-15z"/><path style="opacity:1" fill="#262a32" d="M728.5 1011.5v35a440 440 0 0 1-42-1h41c-.3-11.5 0-22.9 1-34z"/><path style="opacity:1" fill="#a3a295" d="M436.5 1035.5v11h11c-.3-2.6 0-4.9 1-7a9 9 0 0 0 2 7.5c-5 .5-10 .7-15 .5-.3-4.2 0-8.2 1-12z"/><path style="opacity:1" fill="#97968c" d="M682.5 1045.5h4a440 440 0 0 0 42 1 324 324 0 0 1-44 .5c-1-.3-1.6-.8-2-1.5z"/><path style="opacity:1" fill="#8e8d7e" d="M775.5 1041.5a9.1 9.1 0 0 1-1 5 15.9 15.9 0 0 1-11 0c3.4.3 6.7 0 10-1 .5-1.5 1.2-2.9 2-4z"/><path style="opacity:1" fill="#9ea199" d="M909.5 1045.5h2c-.1.6-.4 1.1-1 1.5-16.2.8-32.2.7-48-.5 15.8.3 31.5 0 47-1z"/><path style="opacity:1" fill="#fcf4d7" d="M654.5 1103.5c-.3-9 0-17.8 1-26.5l-15-4.5c-.1 3.4-1.1 3.7-3 1l-1 2.5c.6 11.8.7 23.7.5 35.5a4.5 4.5 0 0 1-1.5 2c-1.5-1.3-3-1.3-4.5 0a83 83 0 0 0-1.5-13v-16c1.1-3.9 1.1-7.8 0-12-7-.2-14 0-21 .5a15 15 0 0 1-1 3.5 3 3 0 0 1-3 1c-4.2-.3-8.2 0-12 1-.7 0-1 .3-1 1a81.7 81.7 0 0 0-.5 22 74.3 74.3 0 0 0 5.5 2 9.7 9.7 0 0 1 .5 11c-7-4.1-11.2-2.1-12.5 6h-3c.3-14.2 0-28.2-1-42h-13c0 8.3-.3 16.7-1 25-.8 3.8-1.3 7.8-1.5 12-.7 2.1-1.6 2.3-2.5.5.4-1 1-1.6 2-2a32 32 0 0 1-4-8.5c-4.6-.2-5.3 1.3-2 4.5 0 3-.6 3.1-1.5.5a5 5 0 0 0-.5 3c-2.1.3-4.1 0-6-1a13 13 0 0 1-2-5c-.7 3.3-1 6.4-1 9.5a28 28 0 0 0 2 4.5h-4c-.2-6.3 0-12.7.5-19l9.5-2a12.7 12.7 0 0 0-8-2v-16h8v-4l-15.5-2a7.3 7.3 0 0 1-2 3 599.7 599.7 0 0 0 0 45 24.6 24.6 0 0 1-4-8l-1-9c-1-.8-2.2-1.2-3.5-1v-23h4c-.2-2 .5-3.7 2-5a6 6 0 0 0-5-2 176.5 176.5 0 0 0-19-1.5c-2.9-2.3-6.2-3-10-2.5v-13h110v-7h13v6c9 .5 18 .9 27 1a9 9 0 0 0 1 5.5c3.3.5 6.7.7 10 .5a40.9 40.9 0 0 1-.5 9l-2-2c-.4 3.5-1.9 6.3-4.5 8.5a20.4 20.4 0 0 1 1.5 5.5l1-4c.1 4.1.8 8.1 2 12a6.8 6.8 0 0 1 1.5-3c1.3 5 1.2 10-.5 15a54.6 54.6 0 0 0-4-13 136 136 0 0 1-2.5 10z"/><path style="opacity:1" fill="#625f58" d="M517.5 1078.5h15v4h-4l3-2a28.7 28.7 0 0 0-13-.5c1.2.2 2.2.7 3 1.5h-4v-3z"/><path style="opacity:1" fill="#1f2024" d="M676.5 1078.5c1.1 8 1.3 16 .5 24a29.5 29.5 0 0 1-3.5 3h-6v7l-2 13a529.9 529.9 0 0 1-1-46c3.8-1 7.8-1.3 12-1z"/><path style="opacity:1" fill="#eeead9" d="M668.5 1082.5h4v18h-4v-18z"/><path style="opacity:1" fill="#aba9a4" d="M668.5 1082.5c1.4-1 3-1.3 5-1 .3 6.5 0 12.9-1 19v-18h-4z"/><path style="opacity:1" fill="#d3cfbf" d="M676.5 1078.5c1.3 4.3 2 9 2 14l-.5 14-1-2c-.7.8-1.5 1-2.5 1h-1a29.5 29.5 0 0 0 3.5-3c.8-8 .6-16-.5-24z"/><path style="opacity:1" fill="#fbf1d7" d="M629.5 1084.5v-5h-7v20c-1 1-2.4 1.3-4 1v-22h-5c-.7 3.5-1 7.2-1 11a797.3 797.3 0 0 0 2 37h4c1-6.8 1.3-13.8 1-21h4c-.3 2.9 0 5.5 1 8 1 4.5 1.3 9.1 1 14 1 1 2.4 1.3 4 1v-28a83 83 0 0 1 1.5 13c1.5-1.3 3-1.3 4.5 0a4.5 4.5 0 0 0 1.5-2c.2-11.8 0-23.6-.5-35.5l1-2.5c1.9 2.7 2.9 2.4 3-1l15 4.5a179.7 179.7 0 0 0-1 26.5 91.2 91.2 0 0 1 2.5 18c2.3-5.4 3.4-5.1 3.5 1 .2 2.5-.5 4.7-2 6.5a28.1 28.1 0 0 0 4.5 3.5c2.3-1.5 3.8-3.5 4.5-6v-21h7c1 1.8 2.7 2.4 5 2-1.3 6 1 8.3 7 7v13h20c-.3 2.3 0 4.5 1 6.5 3.3.5 6.7.7 10 .5a6 6 0 0 1-2 6c-8.8-1.7-16.8.1-24 5.5-6 .1-11.6 1-17 2.5a66.6 66.6 0 0 1-22 0 25 25 0 0 0-.5-7c-1-1.3-2-1.3-3 0a18.4 18.4 0 0 0-.5 6 527.5 527.5 0 0 0-51 2v4c-11.7.2-23.3 0-35-.5-1.6-2-3.1-1.8-4.5.5a24 24 0 0 0-27.5-3 6 6 0 0 1-2-6h-3v3c-2.7.5-5.4 1.1-8 2a10.2 10.2 0 0 1-3-1c.8-2.3.8-4.8 0-7.5a950.4 950.4 0 0 1-40-1.5c.2-1.3-.2-2.5-1-3.5-4.3-.5-8.7-.7-13-.5v-8h-41c-.9-2.2-2.2-4.2-4-6l4-2c-2.2-1-4.6-1.3-7-1v-5c-7 .3-14 0-21-1a4.5 4.5 0 0 0-2-1.5c1.9-3.1 2.5-6.7 2-10.5h27a48 48 0 0 0 1 13.5c18 .5 36 .7 54 .5v13a236.2 236.2 0 0 1 42.5 2l1.5-1-2-2 4-3a441.8 441.8 0 0 0 1-42h1v44h6v-43h5v-4h-15l13-2a6 6 0 0 1 5 2 5.7 5.7 0 0 0-2 5h-4v23c1.3-.2 2.5.2 3.5 1l1 9a24.6 24.6 0 0 0 4 8 599.7 599.7 0 0 1 0-45 7.3 7.3 0 0 0 2-3l15.5 2h-15c-.3 16.2 0 32.2 1 48h14v-5h-6a28 28 0 0 1-2-4.5c0-3 .3-6.2 1-9.5a13 13 0 0 0 2 5c1.9 1 3.9 1.3 6 1a5 5 0 0 1 .5-3c1 2.6 1.4 2.5 1.5-.5-3.3-3.2-2.6-4.7 2-4.5a32 32 0 0 0 4 8.5c-1 .4-1.6 1-2 2 1 1.8 1.8 1.6 2.5-.5.2-4.2.7-8.2 1.5-12v2c0 7-.3 14-1 21h3c.5-6.4 1.5-12.8 3-19 1.3-.2 2.5.2 3.5 1a49.5 49.5 0 0 1 1.5 13v5h4v-48a441.5 441.5 0 0 1 1 42h3c1.3-8.1 5.4-10.1 12.5-6 2.1-3.8 2-7.5-.5-11h3c.2 6 0 12-.5 18-4.5 1-6.3-1-5.5-6h-3v11c3.4.2 6.7 0 10-.5a5.7 5.7 0 0 0 3-5.5c1-6.8 1.3-13.8 1-21h-5l-4-1c-.2-5 0-10 .5-15 3.7-1.5 5.2-.2 4.5 4h3c1-3.1 1.3-6.5 1-10a3 3 0 0 0 3-1 15 15 0 0 0 1-3.5c7-.5 14-.7 21-.5 1.1 4.2 1.1 8.2 0 12z"/><path style="opacity:1" fill="#b4b1a3" d="M629.5 1084.5v16h-1v-20h-5c.3 6.5 0 12.9-1 19v-20h7v5z"/><path style="opacity:1" fill="#5d5c59" d="M613.5 1079.5v-1h5v22c-1-6.8-1.3-13.8-1-21h-4z"/><path style="opacity:1" fill="#1e1f29" d="M613.5 1079.5h4c-.3 7.2 0 14.2 1 21 1.6.3 3 0 4-1 1-6.1 1.3-12.5 1-19h5v47h-3c.3-4.9 0-9.5-1-14v-9h-6v22h-4a960.3 960.3 0 0 0-1-47z"/><path style="opacity:1" fill="#bfb7ae" d="M592.5 1078.5c3.8-1 7.8-1.3 12-1 .3 3.5 0 6.9-1 10v-9h-11z"/><path style="opacity:1" fill="#24242d" d="M591.5 1079.5c11 .3 11.4 1.3 1 3 .3.8.8 1.5 1.5 2 .2 4.8.7 9.5 1.5 14l4 1c1 1 2.4 1.3 4 1v20c.1 2.4-.9 4.2-3 5.5a50 50 0 0 1-10 .5v-11h3c-.8 5 1 7 5.5 6 .5-6 .7-12 .5-18h-3a74.3 74.3 0 0 1-5.5-2c-.8-7.5-.7-14.8.5-22z"/><path style="opacity:1" fill="#2a292e" d="M640.5 1078.5c4-.3 8 0 12 1a553.2 553.2 0 0 1 1 47 48 48 0 0 1-13.5-1 374.5 374.5 0 0 1 .5-47z"/><path style="opacity:1" fill="#383336" d="M591.5 1079.5c0-.7.3-1 1-1h11v9h-3c.7-4.2-.8-5.5-4.5-4-.5 5-.7 10-.5 15-.8-4.5-1.3-9.2-1.5-14a4.5 4.5 0 0 1-1.5-2c10.4-1.7 10-2.7-1-3z"/><path style="opacity:1" fill="#1c222d" d="M528.5 1082.5h-1a441.5 441.5 0 0 0-1 42h-4a463 463 0 0 0-1-43 5.5 5.5 0 0 0-3-1.5c4.4-.8 8.7-.7 13 .5a44.9 44.9 0 0 0-3 2z"/><path style="opacity:1" fill="#605d5e" d="M521.5 1081.5a463 463 0 0 1 1 43h4c-.3-14.2 0-28.2 1-42v43h-6v-44z"/><path style="opacity:1" fill="#96958f" d="M648.5 1122.5c-1.4 1-3 1.3-5 1v-41h6c.3 13.5 0 26.8-1 40z"/><path style="opacity:1" fill="#f9f6e3" d="M648.5 1122.5c-1.3.2-2.5-.2-3.5-1a721.8 721.8 0 0 1-.5-38h4v39z"/><path style="opacity:1" fill="#767470" d="M555.5 1078.5v1h-14v47a576.5 576.5 0 0 1-1-48h15z"/><path style="opacity:1" fill="#b9b2ac" d="M624.5 1113.5c-1-2.5-1.3-5.1-1-8h-4c.3 7.2 0 14.2-1 21v-22h6v9z"/><path style="opacity:1" fill="#171a27" d="M573.5 1080.5c-1.3 8-1.3 16 0 24 1 1 2.4 1.3 4 1 .3-8.5 0-16.9-1-25 .7-.9 1.7-1.2 3-1 .3 15.3 0 30.7-1 46a71.6 71.6 0 0 0-2-4 49.5 49.5 0 0 0-1.5-13c-1-.8-2.2-1.2-3.5-1a130.9 130.9 0 0 0-3 19h-3c.7-7 1-14 1-21 1.7-8.4 2.4-17.1 2-26 2-.3 3.6 0 5 1z"/><path style="opacity:1" fill="#1b1f2e" d="M555.5 1079.5v3h-8v16c2.9-.2 5.6.5 8 2l-9.5 2c-.5 6.3-.7 12.7-.5 19h10v5h-14v-47h14z"/><path style="opacity:1" fill="#979389" d="M613.5 1078.5v1a960.3 960.3 0 0 1 1 47 797.3 797.3 0 0 1-2-37c0-3.9.3-7.5 1-11z"/><path style="opacity:1" fill="#9e9c93" d="M599.5 1099.5h5c.3 7.2 0 14.2-1 21v-20c-1.6.3-3 0-4-1z"/><path style="opacity:1" fill="#6d6e6b" d="M628.5 1100.5h1v28c-1.6.3-3 0-4-1h3v-27z"/><path style="opacity:1" fill="#575653" d="M664.5 1079.5c-.3 15.3 0 30.7 1 46l2-13v14h-4v-20c-.3-9.2 0-18.2 1-27z"/><path style="opacity:1" fill="#d1ccbe" d="M663.5 1106.5v20h3c-1.4 1-3 1.3-5 1 0-7.2.6-14.2 2-21z"/><path style="opacity:1" fill="#474344" d="M580.5 1078.5v48h-4v-5a71.6 71.6 0 0 1 2 4 529.9 529.9 0 0 0 1-46c-1.3-.2-2.3.1-3 1h-3c-1.4-1-3-1.3-5-1 .4 8.9-.3 17.6-2 26v-2c.7-8.3 1-16.6 1-25h13z"/><path style="opacity:1" fill="#484945" d="M576.5 1080.5c1 8.2 1.3 16.5 1 25-1.6.3-3 0-4-1h3v-24z"/><path style="opacity:1" fill="#dadccd" d="M573.5 1080.5h3v24h-3c-1.3-8-1.3-16 0-24z"/><path style="opacity:1" fill="#f7f3da" d="M261.5 1003.5h3a683.4 683.4 0 0 1 1.5 31 32.2 32.2 0 0 0 3.5 7c-2.2-.2-3.9.6-5 2.5 1.6 1 2 2.2 1 3.5a61.7 61.7 0 0 0 12.5 10c.5 1 .6 2 .5 3a5 5 0 0 1 3 .5c1.4 2.5 3.2 3.3 5.5 2.5a306.4 306.4 0 0 1 31 20c-.6 1.6-.3 3 1 4 1.7-1 3.6-1.2 5.5-.5a20.2 20.2 0 0 0 6 4c4.4.7 8.7 1.7 13 3 5.4 5 11.4 9 18 12 6-.8 9.7 1.7 11 7.5 6.2-1.5 10.6.6 13 6.5l4.5 1.5a47 47 0 0 1 10-1 96 96 0 0 1 19.5 7h41v8c4.3-.2 8.7 0 13 .5.8 1 1.2 2.2 1 3.5 13.3.8 26.6 1.3 40 1.5.8 2.7.8 5.2 0 7.5 1 .5 2 .8 3 1 2.6-.9 5.3-1.5 8-2v-3h3a6 6 0 0 0 2 6 24 24 0 0 1 27.5 3c1.4-2.3 2.9-2.5 4.5-.5 11.7.5 23.3.7 35 .5v-4a527.5 527.5 0 0 1 51-2 18.4 18.4 0 0 1 .5-6c1-1.3 2-1.3 3 0 .5 2.3.7 4.6.5 7a66.6 66.6 0 0 0 22 0c4.3 1.3 8.5 1 12.5-1 3.8.9 7.6.9 11.5 0l21-4.5c1.3-.7 1.3-1.3 0-2a85.1 85.1 0 0 0 20.5-3.5c1.7 0 3.2.3 4.5 1l-10 3c-3.7.3-7 1.3-10 3-5 .3-9.6 1.3-14 3-1.8-.1-3.5.2-5 1-4.2.2-8.2.9-12 2-2.7 0-5 .6-7 2-4.9 0-9.6.7-14 2-4.3-.4-8.3.3-12 2-13 .8-26 1.8-39 3a489.6 489.6 0 0 1-62 0 598.4 598.4 0 0 1-127-21.5 566.6 566.6 0 0 1-288-196.5 32.5 32.5 0 0 1 .5-8c2.6 3.2 5.8 6 9.5 8a3.6 3.6 0 0 1-1 1.5l5 7.5a3 3 0 0 0 3 1v3a3 3 0 0 1 3 1 189.4 189.4 0 0 1 8 8.5 5 5 0 0 0 3 .5v5a5 5 0 0 1 3 .5c1.4 3.2 3.6 5 6.5 5.5a39.8 39.8 0 0 0 3.5 7 10.3 10.3 0 0 1-4 1.5c1.1 1.7 2.5 2 4 .5a47.3 47.3 0 0 0 7 3 5 5 0 0 1-.5 3c-1-2.2-2.2-2-3.5.5l5 6c1 .5 2 .3 3-.5a619 619 0 0 1 11 6c.2 3.4 2 5.4 5.5 6 .1 3 1.6 4.3 4.5 4a5 5 0 0 0 .5 3c1.3-2.2 2.4-1.8 3.5 1a7.5 7.5 0 0 0-.5 4l1-1a43 43 0 0 0 7.5 6c1.3-1 2.6-1 4-.5a55.2 55.2 0 0 0 6 8c6.8 3.6 13.5 7.4 20 11.5l1-6.5-2-13 2-14c-.1-2.8-.8-5.3-2-7.5z"/><path style="opacity:1" fill="#131921" d="M811.5 1115.5a45.8 45.8 0 0 0-6 7.5 20.1 20.1 0 0 1-10 1 162 162 0 0 1-13 8c-2.5.5-5 .3-7.5-.5a54.3 54.3 0 0 1-16.5 4c.2 1.3-.2 2.5-1 3.5-5 .1-9.6 1-14 2.5a19.3 19.3 0 0 1-10.5 5c-.9-.6-1.9-1-3-1a79 79 0 0 1-19.5 2c4.4-1.8 9-2.8 14-3 3.7 0 7-1 10-3l10-3a559 559 0 0 0 67-23z"/><path style="opacity:1" fill="#4a4e49" d="M734.5 1141.5c-3 2-6.3 3-10 3 3-1.7 6.3-2.7 10-3z"/><path style="opacity:1" fill="#5c5f5e" d="M705.5 1148.5a25 25 0 0 1-12 2c3.8-1.1 7.8-1.8 12-2z"/><path style="opacity:1" fill="#5c6163" d="M693.5 1150.5c-2 1.4-4.3 2-7 2 2-1.4 4.3-2 7-2z"/><path style="opacity:1" fill="#384243" d="M686.5 1152.5a35 35 0 0 1-14 2c4.4-1.3 9.1-2 14-2z"/><path style="opacity:1" fill="#5f6565" d="M672.5 1154.5c-3.8 1-7.8 1.6-12 2 3.7-1.8 7.7-2.4 12-2z"/><path style="opacity:1" fill="#484f50" d="M559.5 1159.5a489.6 489.6 0 0 0 62 0 242.8 242.8 0 0 1-62 0z"/></svg>